<svg width="24" height="23" viewBox="0 0 24 23" fill="none" xmlns="http://www.w3.org/2000/svg">
<path d="M21.3832 0H19.1402V2.24299C19.1402 2.69159 18.7664 2.99065 18.3925 2.99065C18.0187 2.99065 17.6449 2.69159 17.6449 2.24299V0H5.68224V2.24299C5.68224 2.69159 5.30841 2.99065 4.93458 2.99065C4.56075 2.99065 4.18692 2.69159 4.18692 2.24299V0H1.94393C0.82243 0 0 0.971963 0 2.24299V4.93458H23.9252V2.24299C23.9252 0.971963 22.5794 0 21.3832 0ZM0 6.50467V20.1869C0 21.5327 0.82243 22.4299 2.01869 22.4299H21.4579C22.6542 22.4299 24 21.4579 24 20.1869V6.50467H0ZM6.65421 19.0654H4.85981C4.56075 19.0654 4.26168 18.8411 4.26168 18.4673V16.5981C4.26168 16.2991 4.48598 16 4.85981 16H6.72897C7.02804 16 7.3271 16.2243 7.3271 16.5981V18.4673C7.25234 18.8411 7.02804 19.0654 6.65421 19.0654ZM6.65421 12.3364H4.85981C4.56075 12.3364 4.26168 12.1122 4.26168 11.7383V9.86916C4.26168 9.57009 4.48598 9.27103 4.85981 9.27103H6.72897C7.02804 9.27103 7.3271 9.49533 7.3271 9.86916V11.7383C7.25234 12.1122 7.02804 12.3364 6.65421 12.3364ZM12.6355 19.0654H10.7664C10.4673 19.0654 10.1682 18.8411 10.1682 18.4673V16.5981C10.1682 16.2991 10.3925 16 10.7664 16H12.6355C12.9346 16 13.2336 16.2243 13.2336 16.5981V18.4673C13.2336 18.8411 13.0093 19.0654 12.6355 19.0654ZM12.6355 12.3364H10.7664C10.4673 12.3364 10.1682 12.1122 10.1682 11.7383V9.86916C10.1682 9.57009 10.3925 9.27103 10.7664 9.27103H12.6355C12.9346 9.27103 13.2336 9.49533 13.2336 9.86916V11.7383C13.2336 12.1122 13.0093 12.3364 12.6355 12.3364ZM18.6168 19.0654H16.7477C16.4486 19.0654 16.1495 18.8411 16.1495 18.4673V16.5981C16.1495 16.2991 16.3738 16 16.7477 16H18.6168C18.9159 16 19.215 16.2243 19.215 16.5981V18.4673C19.215 18.8411 18.9907 19.0654 18.6168 19.0654ZM18.6168 12.3364H16.7477C16.4486 12.3364 16.1495 12.1122 16.1495 11.7383V9.86916C16.1495 9.57009 16.3738 9.27103 16.7477 9.27103H18.6168C18.9159 9.27103 19.215 9.49533 19.215 9.86916V11.7383C19.215 12.1122 18.9907 12.3364 18.6168 12.3364Z" fill="#FFBB00"/>
</svg>
