<svg width="314" height="389" viewBox="0 0 314 389" fill="none" xmlns="http://www.w3.org/2000/svg">
<path d="M34.5146 53.0168V30.6668H38.5946V53.0168H34.5146ZM42.5635 53.0168V36.6968H46.2535V39.9068L45.9535 39.3368C46.3335 38.3568 46.9535 37.6168 47.8135 37.1168C48.6935 36.5968 49.7135 36.3368 50.8735 36.3368C52.0735 36.3368 53.1335 36.5968 54.0535 37.1168C54.9935 37.6368 55.7235 38.3668 56.2435 39.3068C56.7635 40.2268 57.0235 41.2968 57.0235 42.5168V53.0168H53.0935V43.4468C53.0935 42.7268 52.9535 42.1068 52.6735 41.5868C52.3935 41.0668 52.0035 40.6668 51.5035 40.3868C51.0235 40.0868 50.4535 39.9368 49.7935 39.9368C49.1535 39.9368 48.5835 40.0868 48.0835 40.3868C47.5835 40.6668 47.1935 41.0668 46.9135 41.5868C46.6335 42.1068 46.4935 42.7268 46.4935 43.4468V53.0168H42.5635ZM66.5567 53.3768C64.8167 53.3768 63.2967 52.9668 61.9967 52.1468C60.7167 51.3068 59.8367 50.1768 59.3567 48.7568L62.2967 47.3468C62.7167 48.2668 63.2967 48.9868 64.0367 49.5068C64.7967 50.0268 65.6367 50.2868 66.5567 50.2868C67.2767 50.2868 67.8467 50.1268 68.2667 49.8068C68.6867 49.4868 68.8967 49.0668 68.8967 48.5468C68.8967 48.2268 68.8067 47.9668 68.6267 47.7668C68.4667 47.5468 68.2367 47.3668 67.9367 47.2268C67.6567 47.0668 67.3467 46.9368 67.0067 46.8368L64.3367 46.0868C62.9567 45.6868 61.9067 45.0768 61.1867 44.2568C60.4867 43.4368 60.1367 42.4668 60.1367 41.3468C60.1367 40.3468 60.3867 39.4768 60.8867 38.7368C61.4067 37.9768 62.1167 37.3868 63.0167 36.9668C63.9367 36.5468 64.9867 36.3368 66.1667 36.3368C67.7067 36.3368 69.0667 36.7068 70.2467 37.4468C71.4267 38.1868 72.2667 39.2268 72.7667 40.5668L69.7667 41.9768C69.4867 41.2368 69.0167 40.6468 68.3567 40.2068C67.6967 39.7668 66.9567 39.5468 66.1367 39.5468C65.4767 39.5468 64.9567 39.6968 64.5767 39.9968C64.1967 40.2968 64.0067 40.6868 64.0067 41.1668C64.0067 41.4668 64.0867 41.7268 64.2467 41.9468C64.4067 42.1668 64.6267 42.3468 64.9067 42.4868C65.2067 42.6268 65.5467 42.7568 65.9267 42.8768L68.5367 43.6568C69.8767 44.0568 70.9067 44.6568 71.6267 45.4568C72.3667 46.2568 72.7367 47.2368 72.7367 48.3968C72.7367 49.3768 72.4767 50.2468 71.9567 51.0068C71.4367 51.7468 70.7167 52.3268 69.7967 52.7468C68.8767 53.1668 67.7967 53.3768 66.5567 53.3768ZM75.7569 53.0168V36.6968H79.6869V53.0168H75.7569ZM75.7569 34.8668V30.6668H79.6869V34.8668H75.7569ZM90.9055 53.3768C89.3255 53.3768 87.9155 53.0068 86.6755 52.2668C85.4355 51.5068 84.4555 50.4768 83.7355 49.1768C83.0155 47.8768 82.6555 46.4368 82.6555 44.8568C82.6555 43.2568 83.0155 41.8168 83.7355 40.5368C84.4555 39.2568 85.4355 38.2368 86.6755 37.4768C87.9355 36.7168 89.3355 36.3368 90.8755 36.3368C92.1155 36.3368 93.2155 36.5868 94.1755 37.0868C95.1555 37.5668 95.9255 38.2468 96.4855 39.1268L95.8855 39.9368V30.3068H99.8155V53.0168H96.0955V49.8668L96.5155 50.6468C95.9555 51.5268 95.1755 52.2068 94.1755 52.6868C93.1755 53.1468 92.0855 53.3768 90.9055 53.3768ZM91.3255 49.7768C92.2255 49.7768 93.0155 49.5668 93.6955 49.1468C94.3755 48.7268 94.9055 48.1468 95.2855 47.4068C95.6855 46.6668 95.8855 45.8168 95.8855 44.8568C95.8855 43.9168 95.6855 43.0768 95.2855 42.3368C94.9055 41.5768 94.3755 40.9868 93.6955 40.5668C93.0155 40.1468 92.2255 39.9368 91.3255 39.9368C90.4455 39.9368 89.6555 40.1568 88.9555 40.5968C88.2555 41.0168 87.7055 41.5968 87.3055 42.3368C86.9255 43.0568 86.7355 43.8968 86.7355 44.8568C86.7355 45.8168 86.9255 46.6668 87.3055 47.4068C87.7055 48.1468 88.2555 48.7268 88.9555 49.1468C89.6555 49.5668 90.4455 49.7768 91.3255 49.7768ZM111.212 53.3768C109.532 53.3768 108.062 52.9968 106.802 52.2368C105.542 51.4768 104.562 50.4468 103.862 49.1468C103.162 47.8468 102.812 46.4068 102.812 44.8268C102.812 43.1868 103.162 41.7368 103.862 40.4768C104.582 39.1968 105.552 38.1868 106.772 37.4468C108.012 36.7068 109.392 36.3368 110.912 36.3368C112.192 36.3368 113.312 36.5468 114.272 36.9668C115.252 37.3868 116.082 37.9668 116.762 38.7068C117.442 39.4468 117.962 40.2968 118.322 41.2568C118.682 42.1968 118.862 43.2168 118.862 44.3168C118.862 44.5968 118.842 44.8868 118.802 45.1868C118.782 45.4868 118.732 45.7468 118.652 45.9668H106.052V42.9668H116.432L114.572 44.3768C114.752 43.4568 114.702 42.6368 114.422 41.9168C114.162 41.1968 113.722 40.6268 113.102 40.2068C112.502 39.7868 111.772 39.5768 110.912 39.5768C110.092 39.5768 109.362 39.7868 108.722 40.2068C108.082 40.6068 107.592 41.2068 107.252 42.0068C106.932 42.7868 106.812 43.7368 106.892 44.8568C106.812 45.8568 106.942 46.7468 107.282 47.5268C107.642 48.2868 108.162 48.8768 108.842 49.2968C109.542 49.7168 110.342 49.9268 111.242 49.9268C112.142 49.9268 112.902 49.7368 113.522 49.3568C114.162 48.9768 114.662 48.4668 115.022 47.8268L118.202 49.3868C117.882 50.1668 117.382 50.8568 116.702 51.4568C116.022 52.0568 115.212 52.5268 114.272 52.8668C113.352 53.2068 112.332 53.3768 111.212 53.3768Z" fill="white"/>
<path d="M127.503 53.0168V30.6668H136.923C138.403 30.6668 139.663 30.9268 140.703 31.4468C141.763 31.9468 142.573 32.6668 143.133 33.6068C143.713 34.5268 144.003 35.6468 144.003 36.9668C144.003 37.9868 143.723 38.9468 143.163 39.8468C142.623 40.7268 141.753 41.4568 140.553 42.0368V40.1468C141.653 40.5668 142.523 41.0868 143.163 41.7068C143.803 42.3268 144.253 43.0168 144.513 43.7768C144.773 44.5368 144.903 45.3368 144.903 46.1768C144.903 48.3168 144.193 49.9968 142.773 51.2168C141.373 52.4168 139.423 53.0168 136.923 53.0168H127.503ZM131.583 49.4168H137.343C138.403 49.4168 139.243 49.1268 139.863 48.5468C140.503 47.9468 140.823 47.1568 140.823 46.1768C140.823 45.1968 140.503 44.4068 139.863 43.8068C139.243 43.2068 138.403 42.9068 137.343 42.9068H131.583V49.4168ZM131.583 39.3368H137.133C137.973 39.3368 138.643 39.0968 139.143 38.6168C139.643 38.1168 139.893 37.4768 139.893 36.6968C139.893 35.9168 139.643 35.2968 139.143 34.8368C138.643 34.3768 137.973 34.1468 137.133 34.1468H131.583V39.3368ZM155.895 53.3768C154.295 53.3768 152.835 53.0068 151.515 52.2668C150.215 51.5268 149.175 50.5168 148.395 49.2368C147.635 47.9568 147.255 46.4968 147.255 44.8568C147.255 43.2168 147.635 41.7568 148.395 40.4768C149.175 39.1968 150.215 38.1868 151.515 37.4468C152.815 36.7068 154.275 36.3368 155.895 36.3368C157.495 36.3368 158.945 36.7068 160.245 37.4468C161.545 38.1868 162.575 39.1968 163.335 40.4768C164.115 41.7368 164.505 43.1968 164.505 44.8568C164.505 46.4968 164.115 47.9568 163.335 49.2368C162.555 50.5168 161.515 51.5268 160.215 52.2668C158.915 53.0068 157.475 53.3768 155.895 53.3768ZM155.895 49.7768C156.775 49.7768 157.545 49.5668 158.205 49.1468C158.885 48.7268 159.415 48.1468 159.795 47.4068C160.195 46.6468 160.395 45.7968 160.395 44.8568C160.395 43.8968 160.195 43.0568 159.795 42.3368C159.415 41.5968 158.885 41.0168 158.205 40.5968C157.545 40.1568 156.775 39.9368 155.895 39.9368C154.995 39.9368 154.205 40.1568 153.525 40.5968C152.845 41.0168 152.305 41.5968 151.905 42.3368C151.525 43.0568 151.335 43.8968 151.335 44.8568C151.335 45.7968 151.525 46.6468 151.905 47.4068C152.305 48.1468 152.845 48.7268 153.525 49.1468C154.205 49.5668 154.995 49.7768 155.895 49.7768ZM175.465 53.3768C173.865 53.3768 172.405 53.0068 171.085 52.2668C169.785 51.5268 168.745 50.5168 167.965 49.2368C167.205 47.9568 166.825 46.4968 166.825 44.8568C166.825 43.2168 167.205 41.7568 167.965 40.4768C168.745 39.1968 169.785 38.1868 171.085 37.4468C172.385 36.7068 173.845 36.3368 175.465 36.3368C177.065 36.3368 178.515 36.7068 179.815 37.4468C181.115 38.1868 182.145 39.1968 182.905 40.4768C183.685 41.7368 184.075 43.1968 184.075 44.8568C184.075 46.4968 183.685 47.9568 182.905 49.2368C182.125 50.5168 181.085 51.5268 179.785 52.2668C178.485 53.0068 177.045 53.3768 175.465 53.3768ZM175.465 49.7768C176.345 49.7768 177.115 49.5668 177.775 49.1468C178.455 48.7268 178.985 48.1468 179.365 47.4068C179.765 46.6468 179.965 45.7968 179.965 44.8568C179.965 43.8968 179.765 43.0568 179.365 42.3368C178.985 41.5968 178.455 41.0168 177.775 40.5968C177.115 40.1568 176.345 39.9368 175.465 39.9368C174.565 39.9368 173.775 40.1568 173.095 40.5968C172.415 41.0168 171.875 41.5968 171.475 42.3368C171.095 43.0568 170.905 43.8968 170.905 44.8568C170.905 45.7968 171.095 46.6468 171.475 47.4068C171.875 48.1468 172.415 48.7268 173.095 49.1468C173.775 49.5668 174.565 49.7768 175.465 49.7768ZM194.203 53.1968C192.363 53.1968 190.933 52.6968 189.913 51.6968C188.913 50.6768 188.413 49.2468 188.413 47.4068V40.2068H185.593V36.6968H185.893C186.693 36.6968 187.313 36.4868 187.753 36.0668C188.193 35.6468 188.413 35.0368 188.413 34.2368V32.9768H192.343V36.6968H196.093V40.2068H192.343V47.1968C192.343 47.7368 192.433 48.1968 192.613 48.5768C192.813 48.9568 193.113 49.2468 193.513 49.4468C193.933 49.6468 194.463 49.7468 195.103 49.7468C195.243 49.7468 195.403 49.7368 195.583 49.7168C195.783 49.6968 195.973 49.6768 196.153 49.6568V53.0168C195.873 53.0568 195.553 53.0968 195.193 53.1368C194.833 53.1768 194.503 53.1968 194.203 53.1968ZM206.869 53.3768C205.249 53.3768 203.789 53.0068 202.489 52.2668C201.209 51.5068 200.199 50.4868 199.459 49.2068C198.719 47.9068 198.349 46.4468 198.349 44.8268C198.349 43.2068 198.719 41.7568 199.459 40.4768C200.199 39.1968 201.209 38.1868 202.489 37.4468C203.789 36.7068 205.249 36.3368 206.869 36.3368C208.029 36.3368 209.109 36.5468 210.109 36.9668C211.109 37.3668 211.969 37.9268 212.689 38.6468C213.429 39.3468 213.959 40.1868 214.279 41.1668L210.829 42.6668C210.529 41.8468 210.019 41.1868 209.299 40.6868C208.599 40.1868 207.789 39.9368 206.869 39.9368C206.009 39.9368 205.239 40.1468 204.559 40.5668C203.899 40.9868 203.379 41.5668 202.999 42.3068C202.619 43.0468 202.429 43.8968 202.429 44.8568C202.429 45.8168 202.619 46.6668 202.999 47.4068C203.379 48.1468 203.899 48.7268 204.559 49.1468C205.239 49.5668 206.009 49.7768 206.869 49.7768C207.809 49.7768 208.629 49.5268 209.329 49.0268C210.029 48.5268 210.529 47.8568 210.829 47.0168L214.279 48.5768C213.959 49.4968 213.439 50.3268 212.719 51.0668C211.999 51.7868 211.139 52.3568 210.139 52.7768C209.139 53.1768 208.049 53.3768 206.869 53.3768ZM222.152 53.3768C221.012 53.3768 220.022 53.1868 219.182 52.8068C218.342 52.4268 217.692 51.8868 217.232 51.1868C216.772 50.4668 216.542 49.6368 216.542 48.6968C216.542 47.7968 216.742 46.9968 217.142 46.2968C217.542 45.5768 218.162 44.9768 219.002 44.4968C219.842 44.0168 220.902 43.6768 222.182 43.4768L227.522 42.6068V45.6068L222.932 46.3868C222.152 46.5268 221.572 46.7768 221.192 47.1368C220.812 47.4968 220.622 47.9668 220.622 48.5468C220.622 49.1068 220.832 49.5568 221.252 49.8968C221.692 50.2168 222.232 50.3768 222.872 50.3768C223.692 50.3768 224.412 50.2068 225.032 49.8668C225.672 49.5068 226.162 49.0168 226.502 48.3968C226.862 47.7768 227.042 47.0968 227.042 46.3568V42.1568C227.042 41.4568 226.762 40.8768 226.202 40.4168C225.662 39.9368 224.942 39.6968 224.042 39.6968C223.202 39.6968 222.452 39.9268 221.792 40.3868C221.152 40.8268 220.682 41.4168 220.382 42.1568L217.172 40.5968C217.492 39.7368 217.992 38.9968 218.672 38.3768C219.372 37.7368 220.192 37.2368 221.132 36.8768C222.072 36.5168 223.092 36.3368 224.192 36.3368C225.532 36.3368 226.712 36.5868 227.732 37.0868C228.752 37.5668 229.542 38.2468 230.102 39.1268C230.682 39.9868 230.972 40.9968 230.972 42.1568V53.0168H227.252V50.2268L228.092 50.1668C227.672 50.8668 227.172 51.4568 226.592 51.9368C226.012 52.3968 225.352 52.7568 224.612 53.0168C223.872 53.2568 223.052 53.3768 222.152 53.3768ZM234.605 53.0168V36.6968H238.295V40.4768L237.875 39.8468C238.175 38.6668 238.775 37.7868 239.675 37.2068C240.575 36.6268 241.635 36.3368 242.855 36.3368C244.195 36.3368 245.375 36.6868 246.395 37.3868C247.415 38.0868 248.075 39.0068 248.375 40.1468L247.265 40.2368C247.765 38.9368 248.515 37.9668 249.515 37.3268C250.515 36.6668 251.665 36.3368 252.965 36.3368C254.125 36.3368 255.155 36.5968 256.055 37.1168C256.975 37.6368 257.695 38.3668 258.215 39.3068C258.735 40.2268 258.995 41.2968 258.995 42.5168V53.0168H255.065V43.4468C255.065 42.7268 254.935 42.1068 254.675 41.5868C254.415 41.0668 254.055 40.6668 253.595 40.3868C253.135 40.0868 252.575 39.9368 251.915 39.9368C251.295 39.9368 250.745 40.0868 250.265 40.3868C249.785 40.6668 249.415 41.0668 249.155 41.5868C248.895 42.1068 248.765 42.7268 248.765 43.4468V53.0168H244.835V43.4468C244.835 42.7268 244.705 42.1068 244.445 41.5868C244.185 41.0668 243.815 40.6668 243.335 40.3868C242.875 40.0868 242.325 39.9368 241.685 39.9368C241.065 39.9368 240.515 40.0868 240.035 40.3868C239.555 40.6668 239.185 41.0668 238.925 41.5868C238.665 42.1068 238.535 42.7268 238.535 43.4468V53.0168H234.605ZM262.319 59.0168V36.6968H266.009V39.9368L265.649 39.1268C266.209 38.2468 266.969 37.5668 267.929 37.0868C268.889 36.5868 269.999 36.3368 271.259 36.3368C272.799 36.3368 274.189 36.7168 275.429 37.4768C276.669 38.2368 277.649 39.2568 278.369 40.5368C279.109 41.8168 279.479 43.2568 279.479 44.8568C279.479 46.4368 279.119 47.8768 278.399 49.1768C277.679 50.4768 276.699 51.5068 275.459 52.2668C274.219 53.0068 272.809 53.3768 271.229 53.3768C270.049 53.3768 268.959 53.1468 267.959 52.6868C266.979 52.2068 266.199 51.5268 265.619 50.6468L266.249 49.8668V59.0168H262.319ZM270.779 49.7768C271.679 49.7768 272.479 49.5668 273.179 49.1468C273.879 48.7268 274.419 48.1468 274.799 47.4068C275.199 46.6668 275.399 45.8168 275.399 44.8568C275.399 43.8968 275.199 43.0568 274.799 42.3368C274.419 41.5968 273.879 41.0168 273.179 40.5968C272.479 40.1568 271.679 39.9368 270.779 39.9368C269.919 39.9368 269.139 40.1468 268.439 40.5668C267.759 40.9868 267.219 41.5768 266.819 42.3368C266.439 43.0768 266.249 43.9168 266.249 44.8568C266.249 45.8168 266.439 46.6668 266.819 47.4068C267.219 48.1468 267.759 48.7268 268.439 49.1468C269.139 49.5668 269.919 49.7768 270.779 49.7768Z" fill="#FFBC05"/>
<path d="M9.60443 26.9998C12.4122 26.2872 15.2477 25.954 18.4911 25.9811C19.251 25.9428 19.3346 27.081 18.7507 26.92C15.3592 27.4716 11.9955 28.4026 9.06745 30.0732C7.04745 31.1269 5.08318 32.9394 2.83143 33.4336C1.51559 33.6903 0.67214 32.5904 1.34843 31.4139C2.87704 28.8617 6.79671 27.7124 9.60443 26.9998Z" fill="#FFBB00"/>
<path d="M23.1807 11.8677C23.0538 14.7617 23.304 17.6058 23.9899 20.7759C24.1069 21.5277 25.2383 21.3782 24.962 20.8392C24.8126 17.4064 25.0403 13.9237 26.0808 10.7171C26.7019 8.52512 28.0772 6.2334 28.1034 3.9282C28.0872 2.58766 26.8387 1.98543 25.8243 2.88675C23.6362 4.90227 23.3077 8.97374 23.1807 11.8677Z" fill="#FFBB00"/>
<path d="M17.3072 18.501C18.5133 19.6104 19.5483 20.8504 20.5388 22.3951C20.792 22.7431 20.2788 23.1348 20.1744 22.8085C18.864 21.3727 17.3824 20.0675 15.6853 19.1974C14.5613 18.5666 13.0952 18.1969 12.1645 17.2832C11.6359 16.7394 11.8959 15.9996 12.6624 15.956C14.3441 15.8905 16.1011 17.3915 17.3072 18.501Z" fill="#FFBB00"/>
<path d="M303.329 35.8412C300.434 35.1065 297.51 34.7629 294.166 34.7908C293.383 34.7514 293.297 35.925 293.899 35.759C297.396 36.3277 300.864 37.2876 303.883 39.0102C305.966 40.0967 307.991 41.9655 310.313 42.4751C311.67 42.7397 312.539 41.6056 311.842 40.3926C310.266 37.761 306.224 36.5759 303.329 35.8412Z" fill="white"/>
<path d="M289.332 20.2379C289.463 23.2218 289.205 26.1543 288.498 29.423C288.377 30.1982 287.21 30.044 287.495 29.4883C287.649 25.9487 287.415 22.3577 286.342 19.0515C285.701 16.7914 284.283 14.4284 284.256 12.0515C284.273 10.6693 285.56 10.0483 286.606 10.9777C288.862 13.0559 289.201 17.2539 289.332 20.2379Z" fill="white"/>
<path d="M295.387 27.0782C294.143 28.2221 293.076 29.5007 292.055 31.0933C291.793 31.4522 292.323 31.8561 292.43 31.5196C293.781 30.0392 295.309 28.6934 297.059 27.7963C298.218 27.1459 299.73 26.7647 300.689 25.8226C301.234 25.2618 300.966 24.4991 300.176 24.4541C298.442 24.3866 296.63 25.9342 295.387 27.0782Z" fill="white"/>
<rect x="19.4178" y="93.7037" width="113.898" height="117.632" transform="rotate(-4.33668 19.4178 93.7037)" fill="white"/>
<rect x="17" y="90.8105" width="113.898" height="117.632" transform="rotate(-4.33668 17 90.8105)" fill="#FFBC05"/>
<rect x="22.6441" y="111.616" width="106.514" height="91.9569" transform="rotate(-4.33668 22.6441 111.616)" fill="white"/>
<path d="M69.3315 94.9118L70.9415 93.3012C70.9822 93.2596 71.0316 93.2274 71.0861 93.2071C71.1407 93.1867 71.1991 93.1787 71.2571 93.1837C71.3148 93.1878 71.3709 93.2044 71.4216 93.2321C71.4723 93.2599 71.5164 93.2983 71.5509 93.3447L75.9761 99.3844C76.1095 99.5623 76.0735 99.8147 75.8956 99.9481C75.8259 100 75.7412 100.029 75.6541 100.029C75.567 100.029 75.4823 100 75.4126 99.9481L69.375 95.519C69.1957 95.3876 69.1568 95.1356 69.2881 94.9563C69.3003 94.9396 69.3137 94.924 69.3283 94.9094L69.3315 94.9118Z" fill="#CFD8DC"/>
<path d="M62.7517 92.0415L68.0677 86.7254C68.9621 86.0291 70.0764 85.6764 71.2085 85.7313C71.942 85.7056 72.6732 85.8274 73.3588 86.0895C74.0444 86.3516 74.6704 86.7486 75.1998 87.257C76.0631 88.1203 75.9738 89.4546 74.934 91.2239C73.952 92.7636 72.7922 94.1825 71.4786 95.4512C69.3638 97.5649 66.6941 99.7615 64.7484 99.7615C64.4771 99.7683 64.2072 99.7196 63.9555 99.6183C63.7037 99.517 63.4753 99.3653 63.2843 99.1724C61.0707 96.9599 61.6225 93.1717 62.7517 92.0415Z" fill="#D32F2F"/>
<path d="M58.4996 87.7883L63.8157 82.4722C64.0233 82.2646 64.3598 82.2646 64.5674 82.4722L68.8203 86.725C69.5156 87.4204 69.4582 88.9578 67.2254 91.198C65.7678 92.6556 64.6057 93.1862 63.7806 93.1862C63.5916 93.1929 63.4032 93.1615 63.2266 93.0939C63.05 93.0263 62.8888 92.9239 62.7525 92.7928L58.4996 88.5399C58.2921 88.3324 58.2921 87.9959 58.4996 87.7883Z" fill="#F44336"/>
<path d="M53.0688 86.3668C53.109 86.2696 53.1771 86.1865 53.2646 86.128C53.352 86.0695 53.4548 86.0383 53.56 86.0383C54.7125 86.0383 57.243 84.7922 59.0313 83.0039C60.8196 81.2156 62.0657 78.6861 62.0657 77.5326C62.0656 77.4273 62.0966 77.3243 62.155 77.2367C62.2134 77.1491 62.2965 77.0808 62.3938 77.0405C62.491 77.0002 62.5981 76.9897 62.7013 77.0103C62.8046 77.0309 62.8994 77.0816 62.9737 77.1562C65.1448 79.3283 65.8232 83.0326 62.4421 86.4136C61.8055 87.1211 61.0332 87.6936 60.1712 88.097C59.3091 88.5004 58.3749 88.7267 57.4237 88.7622C56.6324 88.7532 55.8505 88.588 55.1231 88.2762C54.3957 87.9644 53.737 87.5121 53.1847 86.9452C53.1104 86.871 53.0598 86.7765 53.0392 86.6735C53.0185 86.5706 53.0289 86.4639 53.0688 86.3668Z" fill="#D32F2F"/>
<path d="M56.3729 80.3455C58.6248 78.0947 60.6609 77.0006 62.597 77.0006C62.8906 77.0006 63.1286 77.2386 63.1286 77.5322C63.1286 79.1196 61.6273 81.9116 59.7837 83.7563C57.9401 85.601 55.1459 87.1012 53.5596 87.1012C53.266 87.1012 53.028 86.8632 53.028 86.5696C53.028 84.6324 54.1221 82.5963 56.3729 80.3455Z" fill="#F44336"/>
<g filter="url(#filter0_f_124_175)">
<ellipse cx="3.99683" cy="0.756534" rx="3.99683" ry="0.756534" transform="matrix(0.739331 -0.673342 -0.673342 -0.739331 73.002 102.658)" fill="#262626" fill-opacity="0.5"/>
</g>
<rect width="108.799" height="112.366" transform="matrix(-0.997137 -0.075617 -0.075617 0.997137 294.869 98.955)" fill="white"/>
<rect width="108.799" height="112.366" transform="matrix(-0.997137 -0.075617 -0.075617 0.997137 297.178 96.1907)" fill="#FFBC05"/>
<rect width="101.745" height="87.84" transform="matrix(-0.997137 -0.075617 -0.075617 0.997137 291.788 116.065)" fill="white"/>
<path d="M247.19 100.109L245.652 98.5703C245.614 98.5305 245.566 98.4998 245.514 98.4804C245.462 98.461 245.406 98.4533 245.351 98.458C245.296 98.462 245.242 98.4778 245.194 98.5043C245.145 98.5309 245.103 98.5676 245.07 98.6119L240.843 104.381C240.716 104.551 240.75 104.792 240.92 104.92C240.987 104.969 241.068 104.996 241.151 104.996C241.234 104.996 241.315 104.969 241.381 104.92L247.149 100.689C247.32 100.563 247.357 100.323 247.232 100.151C247.22 100.135 247.207 100.12 247.193 100.107L247.19 100.109Z" fill="#CFD8DC"/>
<path d="M253.475 97.3672L248.396 92.2892C247.542 91.624 246.478 91.2871 245.396 91.3395C244.696 91.315 243.997 91.4314 243.342 91.6817C242.687 91.9321 242.089 92.3113 241.584 92.7969C240.759 93.6216 240.844 94.8962 241.838 96.5862C242.776 98.0571 243.883 99.4124 245.138 100.624C247.158 102.643 249.709 104.742 251.567 104.742C251.826 104.748 252.084 104.702 252.325 104.605C252.565 104.508 252.783 104.363 252.966 104.179C255.08 102.065 254.553 98.4469 253.475 97.3672Z" fill="#D32F2F"/>
<path d="M257.537 93.3043L252.459 88.2262C252.261 88.028 251.939 88.028 251.741 88.2262L247.678 92.2887C247.014 92.9529 247.069 94.4215 249.202 96.5613C250.594 97.9538 251.704 98.4605 252.492 98.4605C252.673 98.4669 252.853 98.4369 253.022 98.3724C253.19 98.3078 253.344 98.21 253.475 98.0848L257.537 94.0223C257.735 93.824 257.735 93.5026 257.537 93.3043Z" fill="#F44336"/>
<path d="M262.725 91.9464C262.686 91.8535 262.621 91.7741 262.538 91.7183C262.454 91.6624 262.356 91.6326 262.256 91.6325C261.155 91.6325 258.738 90.4422 257.029 88.734C255.321 87.0257 254.131 84.6095 254.131 83.5076C254.131 83.407 254.101 83.3087 254.045 83.225C253.99 83.1413 253.91 83.0761 253.817 83.0376C253.724 82.9991 253.622 82.989 253.524 83.0087C253.425 83.0284 253.334 83.0769 253.263 83.1481C251.189 85.223 250.542 88.7614 253.771 91.9911C254.379 92.6669 255.117 93.2137 255.94 93.5991C256.764 93.9845 257.656 94.2006 258.565 94.2345C259.321 94.2259 260.068 94.0681 260.763 93.7703C261.457 93.4724 262.087 93.0403 262.614 92.4988C262.685 92.428 262.733 92.3377 262.753 92.2394C262.773 92.141 262.763 92.0391 262.725 91.9464Z" fill="#D32F2F"/>
<path d="M259.569 86.1949C257.418 84.0448 255.473 82.9998 253.624 82.9998C253.343 82.9998 253.116 83.2271 253.116 83.5076C253.116 85.0239 254.55 87.6909 256.311 89.453C258.072 91.2151 260.741 92.6482 262.257 92.6482C262.537 92.6482 262.764 92.4208 262.764 92.1403C262.764 90.2899 261.719 88.3449 259.569 86.1949Z" fill="#F44336"/>
<g filter="url(#filter1_f_124_175)">
<ellipse cx="241.347" cy="104.403" rx="3.8179" ry="0.722664" transform="rotate(-137.674 241.347 104.403)" fill="#262626" fill-opacity="0.5"/>
</g>
<rect x="20.4178" y="271.704" width="113.898" height="117.632" transform="rotate(-4.33668 20.4178 271.704)" fill="white"/>
<rect x="18" y="268.811" width="113.898" height="117.632" transform="rotate(-4.33668 18 268.811)" fill="#FFBC05"/>
<rect x="23.6441" y="289.616" width="106.514" height="91.9569" transform="rotate(-4.33668 23.6441 289.616)" fill="white"/>
<path d="M70.3315 272.912L71.9415 271.301C71.9822 271.26 72.0316 271.227 72.0861 271.207C72.1407 271.187 72.1991 271.179 72.2571 271.184C72.3148 271.188 72.3709 271.204 72.4216 271.232C72.4723 271.26 72.5164 271.298 72.5509 271.345L76.9761 277.384C77.1095 277.562 77.0735 277.815 76.8956 277.948C76.8259 278 76.7412 278.029 76.6541 278.029C76.567 278.029 76.4823 278 76.4126 277.948L70.375 273.519C70.1957 273.388 70.1568 273.136 70.2881 272.956C70.3003 272.94 70.3137 272.924 70.3283 272.909L70.3315 272.912Z" fill="#CFD8DC"/>
<path d="M63.7517 270.041L69.0677 264.725C69.9621 264.029 71.0764 263.676 72.2085 263.731C72.942 263.706 73.6732 263.827 74.3588 264.089C75.0444 264.352 75.6704 264.749 76.1998 265.257C77.0631 266.12 76.9738 267.455 75.934 269.224C74.952 270.764 73.7922 272.183 72.4786 273.451C70.3638 275.565 67.6941 277.761 65.7484 277.761C65.4771 277.768 65.2072 277.72 64.9555 277.618C64.7037 277.517 64.4753 277.365 64.2843 277.172C62.0707 274.96 62.6225 271.172 63.7517 270.041Z" fill="#D32F2F"/>
<path d="M59.4996 265.788L64.8157 260.472C65.0233 260.265 65.3598 260.265 65.5674 260.472L69.8203 264.725C70.5156 265.42 70.4582 266.958 68.2254 269.198C66.7678 270.656 65.6057 271.186 64.7806 271.186C64.5916 271.193 64.4032 271.161 64.2266 271.094C64.05 271.026 63.8888 270.924 63.7525 270.793L59.4996 266.54C59.2921 266.332 59.2921 265.996 59.4996 265.788Z" fill="#F44336"/>
<path d="M54.0688 264.367C54.109 264.27 54.1771 264.186 54.2646 264.128C54.352 264.07 54.4548 264.038 54.56 264.038C55.7125 264.038 58.243 262.792 60.0313 261.004C61.8196 259.216 63.0657 256.686 63.0657 255.533C63.0656 255.427 63.0966 255.324 63.155 255.237C63.2134 255.149 63.2965 255.081 63.3938 255.041C63.491 255 63.5981 254.99 63.7013 255.01C63.8046 255.031 63.8994 255.082 63.9737 255.156C66.1448 257.328 66.8232 261.033 63.4421 264.414C62.8055 265.121 62.0332 265.694 61.1712 266.097C60.3091 266.5 59.3749 266.727 58.4237 266.762C57.6324 266.753 56.8505 266.588 56.1231 266.276C55.3957 265.964 54.737 265.512 54.1847 264.945C54.1104 264.871 54.0598 264.776 54.0392 264.674C54.0185 264.571 54.0289 264.464 54.0688 264.367Z" fill="#D32F2F"/>
<path d="M57.3729 258.346C59.6248 256.095 61.6609 255.001 63.597 255.001C63.8906 255.001 64.1286 255.239 64.1286 255.532C64.1286 257.12 62.6273 259.912 60.7837 261.756C58.9401 263.601 56.1459 265.101 54.5596 265.101C54.266 265.101 54.028 264.863 54.028 264.57C54.028 262.632 55.1221 260.596 57.3729 258.346Z" fill="#F44336"/>
<g filter="url(#filter2_f_124_175)">
<ellipse cx="3.99683" cy="0.756534" rx="3.99683" ry="0.756534" transform="matrix(0.739331 -0.673342 -0.673342 -0.739331 74.002 280.658)" fill="#262626" fill-opacity="0.5"/>
</g>
<rect width="108.799" height="112.366" transform="matrix(-0.997137 -0.075617 -0.075617 0.997137 295.869 276.955)" fill="white"/>
<rect width="108.799" height="112.366" transform="matrix(-0.997137 -0.075617 -0.075617 0.997137 298.178 274.191)" fill="#FFBC05"/>
<rect width="101.745" height="87.84" transform="matrix(-0.997137 -0.075617 -0.075617 0.997137 292.788 294.065)" fill="white"/>
<path d="M248.19 278.109L246.652 276.57C246.614 276.531 246.566 276.5 246.514 276.48C246.462 276.461 246.406 276.453 246.351 276.458C246.296 276.462 246.242 276.478 246.194 276.504C246.145 276.531 246.103 276.568 246.07 276.612L241.843 282.381C241.716 282.551 241.75 282.792 241.92 282.92C241.987 282.969 242.068 282.996 242.151 282.996C242.234 282.996 242.315 282.969 242.381 282.92L248.149 278.689C248.32 278.563 248.357 278.323 248.232 278.151C248.22 278.135 248.207 278.12 248.193 278.107L248.19 278.109Z" fill="#CFD8DC"/>
<path d="M254.475 275.367L249.396 270.289C248.542 269.624 247.478 269.287 246.396 269.34C245.696 269.315 244.997 269.431 244.342 269.682C243.687 269.932 243.089 270.311 242.584 270.797C241.759 271.622 241.844 272.896 242.838 274.586C243.776 276.057 244.883 277.412 246.138 278.624C248.158 280.643 250.709 282.742 252.567 282.742C252.826 282.748 253.084 282.702 253.325 282.605C253.565 282.508 253.783 282.363 253.966 282.179C256.08 280.065 255.553 276.447 254.475 275.367Z" fill="#D32F2F"/>
<path d="M258.537 271.304L253.459 266.226C253.261 266.028 252.939 266.028 252.741 266.226L248.678 270.289C248.014 270.953 248.069 272.421 250.202 274.561C251.594 275.954 252.704 276.461 253.492 276.461C253.673 276.467 253.853 276.437 254.022 276.372C254.19 276.308 254.344 276.21 254.475 276.085L258.537 272.022C258.735 271.824 258.735 271.503 258.537 271.304Z" fill="#F44336"/>
<path d="M263.725 269.946C263.686 269.853 263.621 269.774 263.538 269.718C263.454 269.662 263.356 269.633 263.256 269.633C262.155 269.633 259.738 268.442 258.029 266.734C256.321 265.026 255.131 262.61 255.131 261.508C255.131 261.407 255.101 261.309 255.045 261.225C254.99 261.141 254.91 261.076 254.817 261.038C254.724 260.999 254.622 260.989 254.524 261.009C254.425 261.028 254.334 261.077 254.263 261.148C252.189 263.223 251.542 266.761 254.771 269.991C255.379 270.667 256.117 271.214 256.94 271.599C257.764 271.984 258.656 272.201 259.565 272.235C260.321 272.226 261.068 272.068 261.763 271.77C262.457 271.472 263.087 271.04 263.614 270.499C263.685 270.428 263.733 270.338 263.753 270.239C263.773 270.141 263.763 270.039 263.725 269.946Z" fill="#D32F2F"/>
<path d="M260.569 264.195C258.418 262.045 256.473 261 254.624 261C254.343 261 254.116 261.227 254.116 261.508C254.116 263.024 255.55 265.691 257.311 267.453C259.072 269.215 261.741 270.648 263.257 270.648C263.537 270.648 263.764 270.421 263.764 270.14C263.764 268.29 262.719 266.345 260.569 264.195Z" fill="#F44336"/>
<g filter="url(#filter3_f_124_175)">
<ellipse cx="242.347" cy="282.403" rx="3.8179" ry="0.722664" transform="rotate(-137.674 242.347 282.403)" fill="#262626" fill-opacity="0.5"/>
</g>
<defs>
<filter id="filter0_f_124_175" x="68.4485" y="92.6581" width="13.9981" height="13.4987" filterUnits="userSpaceOnUse" color-interpolation-filters="sRGB">
<feFlood flood-opacity="0" result="BackgroundImageFix"/>
<feBlend mode="normal" in="SourceGraphic" in2="BackgroundImageFix" result="shape"/>
<feGaussianBlur stdDeviation="2" result="effect1_foregroundBlur_124_175"/>
</filter>
<filter id="filter1_f_124_175" x="234.482" y="97.777" width="13.7296" height="13.2523" filterUnits="userSpaceOnUse" color-interpolation-filters="sRGB">
<feFlood flood-opacity="0" result="BackgroundImageFix"/>
<feBlend mode="normal" in="SourceGraphic" in2="BackgroundImageFix" result="shape"/>
<feGaussianBlur stdDeviation="2" result="effect1_foregroundBlur_124_175"/>
</filter>
<filter id="filter2_f_124_175" x="69.4485" y="270.658" width="13.9981" height="13.4987" filterUnits="userSpaceOnUse" color-interpolation-filters="sRGB">
<feFlood flood-opacity="0" result="BackgroundImageFix"/>
<feBlend mode="normal" in="SourceGraphic" in2="BackgroundImageFix" result="shape"/>
<feGaussianBlur stdDeviation="2" result="effect1_foregroundBlur_124_175"/>
</filter>
<filter id="filter3_f_124_175" x="235.482" y="275.777" width="13.7296" height="13.2523" filterUnits="userSpaceOnUse" color-interpolation-filters="sRGB">
<feFlood flood-opacity="0" result="BackgroundImageFix"/>
<feBlend mode="normal" in="SourceGraphic" in2="BackgroundImageFix" result="shape"/>
<feGaussianBlur stdDeviation="2" result="effect1_foregroundBlur_124_175"/>
</filter>
</defs>
</svg>
