<svg width="360" height="293" viewBox="0 0 360 293" fill="none" xmlns="http://www.w3.org/2000/svg">
<rect y="120" width="360" height="61" fill="#FFBC05"/>
<rect x="50.0005" y="58.3616" width="276" height="200" rx="10" fill="#595959"/>
<rect x="41.0005" y="55.3616" width="280" height="197" rx="10" fill="#1E1E1E"/>
<rect x="48.5005" y="61.8616" width="265" height="186" rx="9.5" stroke="#FFBC05" stroke-opacity="0.25" stroke-dasharray="10 10"/>
<circle cx="180.501" cy="55.4999" r="39.5908" transform="rotate(-33.2059 180.501 55.4999)" fill="url(#paint0_linear_124_177)" stroke="url(#paint1_linear_124_177)"/>
<g clip-path="url(#clip0_124_177)">
<path d="M191.808 86.5876L186.883 82.1783L182.543 87.0724L181.542 69.2981L183.665 69.9544C185.343 70.4755 187.157 70.3957 188.774 69.7293L190.776 68.9043L191.808 86.5876Z" fill="#F36A3D"/>
<path d="M205.565 77.5824L189.772 69.5606L191.33 68.0559C192.588 66.8407 193.387 65.2103 193.581 63.4634L193.829 61.255L209.717 69.2852L203.495 71.3046L205.565 77.5824Z" fill="#EC4C36"/>
<path d="M191.826 71.6028C196.809 68.3415 198.204 61.6585 194.943 56.6758C191.682 51.6932 184.999 50.2977 180.016 53.559C175.033 56.8203 173.638 63.5034 176.899 68.486C180.16 73.4687 186.843 74.8641 191.826 71.6028Z" fill="#FFDF40"/>
<path d="M151.762 49.9587L147.896 52.4895L156.332 65.3779L160.198 62.8472C162.33 61.4517 162.929 58.582 161.534 56.4499C160.883 55.456 159.908 54.8114 158.841 54.5304C159.011 53.4401 158.81 52.2884 158.16 51.2945C156.764 49.1624 153.894 48.5632 151.762 49.9587ZM152.161 53.38L153.45 52.5364C154.159 52.0718 155.117 52.2706 155.582 52.9817C156.047 53.6928 155.847 54.6495 155.137 55.1141L153.848 55.9577L152.161 53.38ZM158.511 60.2695L157.222 61.1131L155.535 58.5354L156.824 57.6918C157.534 57.2272 158.491 57.426 158.956 58.1371C159.422 58.8482 159.221 59.8048 158.511 60.2695ZM160.87 43.9974C158.738 45.3929 158.139 48.2626 159.534 50.3947L162.909 55.5501C164.304 57.6822 167.174 58.2814 169.306 56.8858C171.438 55.4903 172.037 52.6206 170.642 50.4886L167.267 45.3332C165.872 43.2011 163.002 42.6019 160.87 43.9974ZM168.064 52.1757C168.53 52.8868 168.329 53.8435 167.619 54.3082C166.909 54.7728 165.952 54.574 165.486 53.8629L162.112 48.7075C161.647 47.9964 161.847 47.0397 162.557 46.5751C163.267 46.1104 164.224 46.3093 164.69 47.0204L168.064 52.1757ZM175.295 43.5343L169.61 38.2768L166.026 40.6231L174.461 53.5115L177.039 51.8243L172.925 45.5387L178.61 50.7962L182.194 48.45L173.759 35.5616L171.181 37.2487L175.295 43.5343Z" fill="white"/>
<path d="M186.108 40.3656C186.574 41.0767 186.373 42.0334 185.663 42.498C184.953 42.9627 183.996 42.7638 183.53 42.0527L177.625 33.0308L175.048 34.718L180.953 43.7399C182.348 45.872 185.218 46.4712 187.35 45.0757C189.482 43.6802 190.081 40.8105 188.686 38.6784L182.781 29.6565L180.203 31.3437L186.108 40.3656ZM191.396 31.3813C190.686 31.8459 189.729 31.6471 189.264 30.936C188.571 29.8776 189.637 28.3257 190.864 28.5852L192.373 28.9012L193.006 25.8867L191.501 25.5689C190.292 25.3155 189.057 25.5488 188.022 26.2259C185.89 27.6214 185.291 30.4911 186.686 32.6232C188.082 34.7553 190.951 35.3545 193.083 33.959C193.793 33.4943 194.75 33.6931 195.216 34.4042C195.908 35.4615 194.843 37.0146 193.616 36.7551L192.107 36.4391L191.473 39.4536L192.979 39.7713C194.188 40.0247 195.423 39.7915 196.458 39.1144C198.59 37.7188 199.189 34.8492 197.794 32.7171C196.398 30.585 193.528 29.9858 191.396 31.3813Z" fill="white"/>
<path d="M188.451 66.4466C186.318 67.8421 183.449 67.2429 182.053 65.1108C180.658 62.9787 181.257 60.109 183.389 58.7135C185.521 57.318 188.391 57.9172 189.786 60.0493C191.182 62.1814 190.583 65.051 188.451 66.4466Z" fill="#FFBE40"/>
<path d="M175.295 43.5341L170.631 39.2202L177.59 49.8523L178.61 50.7959L182.195 48.4497L173.759 35.5613L171.181 37.2485L175.295 43.5341Z" fill="white"/>
<path d="M194.942 56.6759C191.681 51.6932 184.998 50.2978 180.015 53.5591L191.826 71.6029C196.808 68.3416 198.204 61.6586 194.942 56.6759Z" fill="#FFBE40"/>
<path d="M189.786 60.0499C188.391 57.9178 185.521 57.3186 183.389 58.7141L188.45 66.4472C190.582 65.0517 191.182 62.182 189.786 60.0499Z" fill="#FF9F40"/>
</g>
<path d="M75.2159 126.362V111.462H81.4959C82.4826 111.462 83.3226 111.635 84.0159 111.982C84.7226 112.315 85.2626 112.795 85.6359 113.422C86.0226 114.035 86.2159 114.782 86.2159 115.662C86.2159 116.342 86.0293 116.982 85.6559 117.582C85.2959 118.168 84.7159 118.655 83.9159 119.042V117.782C84.6493 118.062 85.2293 118.408 85.6559 118.822C86.0826 119.235 86.3826 119.695 86.5559 120.202C86.7293 120.708 86.8159 121.242 86.8159 121.802C86.8159 123.228 86.3426 124.348 85.3959 125.162C84.4626 125.962 83.1626 126.362 81.4959 126.362H75.2159ZM77.9359 123.962H81.7759C82.4826 123.962 83.0426 123.768 83.4559 123.382C83.8826 122.982 84.0959 122.455 84.0959 121.802C84.0959 121.148 83.8826 120.622 83.4559 120.222C83.0426 119.822 82.4826 119.622 81.7759 119.622H77.9359V123.962ZM77.9359 117.242H81.6359C82.1959 117.242 82.6426 117.082 82.9759 116.762C83.3093 116.428 83.4759 116.002 83.4759 115.482C83.4759 114.962 83.3093 114.548 82.9759 114.242C82.6426 113.935 82.1959 113.782 81.6359 113.782H77.9359V117.242ZM93.9841 126.602C92.8641 126.602 91.8841 126.348 91.0441 125.842C90.2041 125.335 89.5507 124.648 89.0841 123.782C88.6174 122.915 88.3841 121.955 88.3841 120.902C88.3841 119.808 88.6174 118.842 89.0841 118.002C89.5641 117.148 90.2107 116.475 91.0241 115.982C91.8507 115.488 92.7707 115.242 93.7841 115.242C94.6374 115.242 95.3841 115.382 96.0241 115.662C96.6774 115.942 97.2307 116.328 97.6841 116.822C98.1374 117.315 98.4841 117.882 98.7241 118.522C98.9641 119.148 99.0841 119.828 99.0841 120.562C99.0841 120.748 99.0707 120.942 99.0441 121.142C99.0307 121.342 98.9974 121.515 98.9441 121.662H90.5441V119.662H97.4641L96.2241 120.602C96.3441 119.988 96.3107 119.442 96.1241 118.962C95.9507 118.482 95.6574 118.102 95.2441 117.822C94.8441 117.542 94.3574 117.402 93.7841 117.402C93.2374 117.402 92.7507 117.542 92.3241 117.822C91.8974 118.088 91.5707 118.488 91.3441 119.022C91.1307 119.542 91.0507 120.175 91.1041 120.922C91.0507 121.588 91.1374 122.182 91.3641 122.702C91.6041 123.208 91.9507 123.602 92.4041 123.882C92.8707 124.162 93.4041 124.302 94.0041 124.302C94.6041 124.302 95.1107 124.175 95.5241 123.922C95.9507 123.668 96.2841 123.328 96.5241 122.902L98.6441 123.942C98.4307 124.462 98.0974 124.922 97.6441 125.322C97.1907 125.722 96.6507 126.035 96.0241 126.262C95.4107 126.488 94.7307 126.602 93.9841 126.602ZM105.21 126.602C104.05 126.602 103.037 126.328 102.17 125.782C101.317 125.222 100.73 124.468 100.41 123.522L102.37 122.582C102.65 123.195 103.037 123.675 103.53 124.022C104.037 124.368 104.597 124.542 105.21 124.542C105.69 124.542 106.07 124.435 106.35 124.222C106.63 124.008 106.77 123.728 106.77 123.382C106.77 123.168 106.71 122.995 106.59 122.862C106.483 122.715 106.33 122.595 106.13 122.502C105.943 122.395 105.737 122.308 105.51 122.242L103.73 121.742C102.81 121.475 102.11 121.068 101.63 120.522C101.163 119.975 100.93 119.328 100.93 118.582C100.93 117.915 101.097 117.335 101.43 116.842C101.777 116.335 102.25 115.942 102.85 115.662C103.463 115.382 104.163 115.242 104.95 115.242C105.977 115.242 106.883 115.488 107.67 115.982C108.457 116.475 109.017 117.168 109.35 118.062L107.35 119.002C107.163 118.508 106.85 118.115 106.41 117.822C105.97 117.528 105.477 117.382 104.93 117.382C104.49 117.382 104.143 117.482 103.89 117.682C103.637 117.882 103.51 118.142 103.51 118.462C103.51 118.662 103.563 118.835 103.67 118.982C103.777 119.128 103.923 119.248 104.11 119.342C104.31 119.435 104.537 119.522 104.79 119.602L106.53 120.122C107.423 120.388 108.11 120.788 108.59 121.322C109.083 121.855 109.33 122.508 109.33 123.282C109.33 123.935 109.157 124.515 108.81 125.022C108.463 125.515 107.983 125.902 107.37 126.182C106.757 126.462 106.037 126.602 105.21 126.602ZM116.304 126.482C115.077 126.482 114.124 126.148 113.444 125.482C112.777 124.802 112.444 123.848 112.444 122.622V117.822H110.564V115.482H110.764C111.297 115.482 111.71 115.342 112.004 115.062C112.297 114.782 112.444 114.375 112.444 113.842V113.002H115.064V115.482H117.564V117.822H115.064V122.482C115.064 122.842 115.124 123.148 115.244 123.402C115.377 123.655 115.577 123.848 115.844 123.982C116.124 124.115 116.477 124.182 116.904 124.182C116.997 124.182 117.104 124.175 117.224 124.162C117.357 124.148 117.484 124.135 117.604 124.122V126.362C117.417 126.388 117.204 126.415 116.964 126.442C116.724 126.468 116.504 126.482 116.304 126.482ZM123.38 126.362V111.462H128.94C129.953 111.462 130.847 111.648 131.62 112.022C132.407 112.382 133.02 112.915 133.46 113.622C133.9 114.315 134.12 115.162 134.12 116.162C134.12 117.148 133.893 117.995 133.44 118.702C133 119.395 132.393 119.928 131.62 120.302C130.847 120.675 129.953 120.862 128.94 120.862H126.1V126.362H123.38ZM126.1 118.462H128.98C129.473 118.462 129.9 118.368 130.26 118.182C130.62 117.982 130.9 117.708 131.1 117.362C131.3 117.015 131.4 116.615 131.4 116.162C131.4 115.695 131.3 115.295 131.1 114.962C130.9 114.615 130.62 114.348 130.26 114.162C129.9 113.962 129.473 113.862 128.98 113.862H126.1V118.462ZM140.898 126.602C139.778 126.602 138.798 126.348 137.958 125.842C137.118 125.335 136.465 124.648 135.998 123.782C135.531 122.915 135.298 121.955 135.298 120.902C135.298 119.808 135.531 118.842 135.998 118.002C136.478 117.148 137.125 116.475 137.938 115.982C138.765 115.488 139.685 115.242 140.698 115.242C141.551 115.242 142.298 115.382 142.938 115.662C143.591 115.942 144.145 116.328 144.598 116.822C145.051 117.315 145.398 117.882 145.638 118.522C145.878 119.148 145.998 119.828 145.998 120.562C145.998 120.748 145.985 120.942 145.958 121.142C145.945 121.342 145.911 121.515 145.858 121.662H137.458V119.662H144.378L143.138 120.602C143.258 119.988 143.225 119.442 143.038 118.962C142.865 118.482 142.571 118.102 142.158 117.822C141.758 117.542 141.271 117.402 140.698 117.402C140.151 117.402 139.665 117.542 139.238 117.822C138.811 118.088 138.485 118.488 138.258 119.022C138.045 119.542 137.965 120.175 138.018 120.922C137.965 121.588 138.051 122.182 138.278 122.702C138.518 123.208 138.865 123.602 139.318 123.882C139.785 124.162 140.318 124.302 140.918 124.302C141.518 124.302 142.025 124.175 142.438 123.922C142.865 123.668 143.198 123.328 143.438 122.902L145.558 123.942C145.345 124.462 145.011 124.922 144.558 125.322C144.105 125.722 143.565 126.035 142.938 126.262C142.325 126.488 141.645 126.602 140.898 126.602ZM147.984 126.362V115.482H150.444V117.902L150.244 117.542C150.498 116.728 150.891 116.162 151.424 115.842C151.971 115.522 152.624 115.362 153.384 115.362H154.024V117.682H153.084C152.338 117.682 151.738 117.915 151.284 118.382C150.831 118.835 150.604 119.475 150.604 120.302V126.362H147.984ZM156.725 126.362V117.822H154.805V115.482H156.725V115.122C156.725 114.295 156.891 113.595 157.225 113.022C157.571 112.435 158.051 111.988 158.665 111.682C159.278 111.375 160.005 111.222 160.845 111.222C161.005 111.222 161.178 111.235 161.365 111.262C161.565 111.275 161.731 111.295 161.865 111.322V113.582C161.731 113.555 161.605 113.542 161.485 113.542C161.378 113.528 161.278 113.522 161.185 113.522C160.598 113.522 160.145 113.655 159.825 113.922C159.505 114.175 159.345 114.575 159.345 115.122V115.482H161.765V117.822H159.345V126.362H156.725ZM168.597 126.602C167.531 126.602 166.557 126.355 165.677 125.862C164.811 125.368 164.117 124.695 163.597 123.842C163.091 122.988 162.837 122.015 162.837 120.922C162.837 119.828 163.091 118.855 163.597 118.002C164.117 117.148 164.811 116.475 165.677 115.982C166.544 115.488 167.517 115.242 168.597 115.242C169.664 115.242 170.631 115.488 171.497 115.982C172.364 116.475 173.051 117.148 173.557 118.002C174.077 118.842 174.337 119.815 174.337 120.922C174.337 122.015 174.077 122.988 173.557 123.842C173.037 124.695 172.344 125.368 171.477 125.862C170.611 126.355 169.651 126.602 168.597 126.602ZM168.597 124.202C169.184 124.202 169.697 124.062 170.137 123.782C170.591 123.502 170.944 123.115 171.197 122.622C171.464 122.115 171.597 121.548 171.597 120.922C171.597 120.282 171.464 119.722 171.197 119.242C170.944 118.748 170.591 118.362 170.137 118.082C169.697 117.788 169.184 117.642 168.597 117.642C167.997 117.642 167.471 117.788 167.017 118.082C166.564 118.362 166.204 118.748 165.937 119.242C165.684 119.722 165.557 120.282 165.557 120.922C165.557 121.548 165.684 122.115 165.937 122.622C166.204 123.115 166.564 123.502 167.017 123.782C167.471 124.062 167.997 124.202 168.597 124.202ZM176.324 126.362V115.482H178.784V117.902L178.584 117.542C178.837 116.728 179.231 116.162 179.764 115.842C180.311 115.522 180.964 115.362 181.724 115.362H182.364V117.682H181.424C180.677 117.682 180.077 117.915 179.624 118.382C179.171 118.835 178.944 119.475 178.944 120.302V126.362H176.324ZM183.805 126.362V115.482H186.265V118.002L185.985 117.582C186.185 116.795 186.585 116.208 187.185 115.822C187.785 115.435 188.491 115.242 189.305 115.242C190.198 115.242 190.985 115.475 191.665 115.942C192.345 116.408 192.785 117.022 192.985 117.782L192.245 117.842C192.578 116.975 193.078 116.328 193.745 115.902C194.411 115.462 195.178 115.242 196.045 115.242C196.818 115.242 197.505 115.415 198.105 115.762C198.718 116.108 199.198 116.595 199.545 117.222C199.891 117.835 200.065 118.548 200.065 119.362V126.362H197.445V119.982C197.445 119.502 197.358 119.088 197.185 118.742C197.011 118.395 196.771 118.128 196.465 117.942C196.158 117.742 195.785 117.642 195.345 117.642C194.931 117.642 194.565 117.742 194.245 117.942C193.925 118.128 193.678 118.395 193.505 118.742C193.331 119.088 193.245 119.502 193.245 119.982V126.362H190.625V119.982C190.625 119.502 190.538 119.088 190.365 118.742C190.191 118.395 189.945 118.128 189.625 117.942C189.318 117.742 188.951 117.642 188.525 117.642C188.111 117.642 187.745 117.742 187.425 117.942C187.105 118.128 186.858 118.395 186.685 118.742C186.511 119.088 186.425 119.502 186.425 119.982V126.362H183.805ZM207.441 126.602C206.321 126.602 205.341 126.348 204.501 125.842C203.661 125.335 203.008 124.648 202.541 123.782C202.074 122.915 201.841 121.955 201.841 120.902C201.841 119.808 202.074 118.842 202.541 118.002C203.021 117.148 203.668 116.475 204.481 115.982C205.308 115.488 206.228 115.242 207.241 115.242C208.094 115.242 208.841 115.382 209.481 115.662C210.134 115.942 210.688 116.328 211.141 116.822C211.594 117.315 211.941 117.882 212.181 118.522C212.421 119.148 212.541 119.828 212.541 120.562C212.541 120.748 212.528 120.942 212.501 121.142C212.488 121.342 212.454 121.515 212.401 121.662H204.001V119.662H210.921L209.681 120.602C209.801 119.988 209.768 119.442 209.581 118.962C209.408 118.482 209.114 118.102 208.701 117.822C208.301 117.542 207.814 117.402 207.241 117.402C206.694 117.402 206.208 117.542 205.781 117.822C205.354 118.088 205.028 118.488 204.801 119.022C204.588 119.542 204.508 120.175 204.561 120.922C204.508 121.588 204.594 122.182 204.821 122.702C205.061 123.208 205.408 123.602 205.861 123.882C206.328 124.162 206.861 124.302 207.461 124.302C208.061 124.302 208.568 124.175 208.981 123.922C209.408 123.668 209.741 123.328 209.981 122.902L212.101 123.942C211.888 124.462 211.554 124.922 211.101 125.322C210.648 125.722 210.108 126.035 209.481 126.262C208.868 126.488 208.188 126.602 207.441 126.602ZM214.527 126.362V115.482H216.987V117.902L216.787 117.542C217.041 116.728 217.434 116.162 217.967 115.842C218.514 115.522 219.167 115.362 219.927 115.362H220.567V117.682H219.627C218.881 117.682 218.281 117.915 217.827 118.382C217.374 118.835 217.147 119.475 217.147 120.302V126.362H214.527ZM144.144 196.602C143.077 196.602 142.104 196.355 141.224 195.862C140.357 195.368 139.664 194.695 139.144 193.842C138.637 192.988 138.384 192.015 138.384 190.922C138.384 189.828 138.637 188.855 139.144 188.002C139.664 187.148 140.357 186.475 141.224 185.982C142.091 185.488 143.064 185.242 144.144 185.242C145.211 185.242 146.177 185.488 147.044 185.982C147.911 186.475 148.597 187.148 149.104 188.002C149.624 188.842 149.884 189.815 149.884 190.922C149.884 192.015 149.624 192.988 149.104 193.842C148.584 194.695 147.891 195.368 147.024 195.862C146.157 196.355 145.197 196.602 144.144 196.602ZM144.144 194.202C144.731 194.202 145.244 194.062 145.684 193.782C146.137 193.502 146.491 193.115 146.744 192.622C147.011 192.115 147.144 191.548 147.144 190.922C147.144 190.282 147.011 189.722 146.744 189.242C146.491 188.748 146.137 188.362 145.684 188.082C145.244 187.788 144.731 187.642 144.144 187.642C143.544 187.642 143.017 187.788 142.564 188.082C142.111 188.362 141.751 188.748 141.484 189.242C141.231 189.722 141.104 190.282 141.104 190.922C141.104 191.548 141.231 192.115 141.484 192.622C141.751 193.115 142.111 193.502 142.564 193.782C143.017 194.062 143.544 194.202 144.144 194.202ZM152.897 196.362V187.822H150.977V185.482H152.897V185.122C152.897 184.295 153.063 183.595 153.397 183.022C153.743 182.435 154.223 181.988 154.837 181.682C155.45 181.375 156.177 181.222 157.017 181.222C157.177 181.222 157.35 181.235 157.537 181.262C157.737 181.275 157.903 181.295 158.037 181.322V183.582C157.903 183.555 157.777 183.542 157.657 183.542C157.55 183.528 157.45 183.522 157.357 183.522C156.77 183.522 156.317 183.655 155.997 183.922C155.677 184.175 155.517 184.575 155.517 185.122V185.482H157.937V187.822H155.517V196.362H152.897ZM165.556 196.362V183.782H162.676V181.462H168.276V196.362H165.556ZM177.243 196.602C176.056 196.602 175.016 196.282 174.123 195.642C173.229 195.002 172.529 194.102 172.023 192.942C171.529 191.782 171.283 190.435 171.283 188.902C171.283 187.355 171.529 186.008 172.023 184.862C172.516 183.715 173.209 182.822 174.103 182.182C174.996 181.542 176.036 181.222 177.223 181.222C178.436 181.222 179.483 181.542 180.363 182.182C181.256 182.822 181.956 183.722 182.463 184.882C182.969 186.028 183.223 187.368 183.223 188.902C183.223 190.435 182.969 191.782 182.463 192.942C181.969 194.088 181.276 194.988 180.383 195.642C179.489 196.282 178.443 196.602 177.243 196.602ZM177.263 194.122C177.943 194.122 178.523 193.915 179.003 193.502C179.483 193.075 179.849 192.475 180.103 191.702C180.369 190.915 180.503 189.982 180.503 188.902C180.503 187.822 180.369 186.895 180.103 186.122C179.849 185.335 179.476 184.735 178.983 184.322C178.503 183.908 177.916 183.702 177.223 183.702C176.556 183.702 175.983 183.908 175.503 184.322C175.023 184.735 174.649 185.335 174.383 186.122C174.129 186.895 174.003 187.822 174.003 188.902C174.003 189.968 174.129 190.895 174.383 191.682C174.649 192.455 175.023 193.055 175.503 193.482C175.996 193.908 176.583 194.122 177.263 194.122ZM191.403 196.602C190.216 196.602 189.176 196.282 188.283 195.642C187.389 195.002 186.689 194.102 186.183 192.942C185.689 191.782 185.443 190.435 185.443 188.902C185.443 187.355 185.689 186.008 186.183 184.862C186.676 183.715 187.369 182.822 188.263 182.182C189.156 181.542 190.196 181.222 191.383 181.222C192.596 181.222 193.643 181.542 194.523 182.182C195.416 182.822 196.116 183.722 196.623 184.882C197.129 186.028 197.383 187.368 197.383 188.902C197.383 190.435 197.129 191.782 196.623 192.942C196.129 194.088 195.436 194.988 194.543 195.642C193.649 196.282 192.603 196.602 191.403 196.602ZM191.423 194.122C192.103 194.122 192.683 193.915 193.163 193.502C193.643 193.075 194.009 192.475 194.263 191.702C194.529 190.915 194.663 189.982 194.663 188.902C194.663 187.822 194.529 186.895 194.263 186.122C194.009 185.335 193.636 184.735 193.143 184.322C192.663 183.908 192.076 183.702 191.383 183.702C190.716 183.702 190.143 183.908 189.663 184.322C189.183 184.735 188.809 185.335 188.543 186.122C188.289 186.895 188.163 187.822 188.163 188.902C188.163 189.968 188.289 190.895 188.543 191.682C188.809 192.455 189.183 193.055 189.663 193.482C190.156 193.908 190.743 194.122 191.423 194.122ZM205.563 196.602C204.376 196.602 203.336 196.282 202.443 195.642C201.55 195.002 200.85 194.102 200.343 192.942C199.85 191.782 199.603 190.435 199.603 188.902C199.603 187.355 199.85 186.008 200.343 184.862C200.836 183.715 201.53 182.822 202.423 182.182C203.316 181.542 204.356 181.222 205.543 181.222C206.756 181.222 207.803 181.542 208.683 182.182C209.576 182.822 210.276 183.722 210.783 184.882C211.29 186.028 211.543 187.368 211.543 188.902C211.543 190.435 211.29 191.782 210.783 192.942C210.29 194.088 209.596 194.988 208.703 195.642C207.81 196.282 206.763 196.602 205.563 196.602ZM205.583 194.122C206.263 194.122 206.843 193.915 207.323 193.502C207.803 193.075 208.17 192.475 208.423 191.702C208.69 190.915 208.823 189.982 208.823 188.902C208.823 187.822 208.69 186.895 208.423 186.122C208.17 185.335 207.796 184.735 207.303 184.322C206.823 183.908 206.236 183.702 205.543 183.702C204.876 183.702 204.303 183.908 203.823 184.322C203.343 184.735 202.97 185.335 202.703 186.122C202.45 186.895 202.323 187.822 202.323 188.902C202.323 189.968 202.45 190.895 202.703 191.682C202.97 192.455 203.343 193.055 203.823 193.482C204.316 193.908 204.903 194.122 205.583 194.122ZM213.863 196.362V185.482H216.323V187.902L216.123 187.542C216.376 186.728 216.77 186.162 217.303 185.842C217.85 185.522 218.503 185.362 219.263 185.362H219.903V187.682H218.963C218.216 187.682 217.616 187.915 217.163 188.382C216.71 188.835 216.483 189.475 216.483 190.302V196.362H213.863ZM225.484 196.602C224.324 196.602 223.31 196.328 222.444 195.782C221.59 195.222 221.004 194.468 220.684 193.522L222.644 192.582C222.924 193.195 223.31 193.675 223.804 194.022C224.31 194.368 224.87 194.542 225.484 194.542C225.964 194.542 226.344 194.435 226.624 194.222C226.904 194.008 227.044 193.728 227.044 193.382C227.044 193.168 226.984 192.995 226.864 192.862C226.757 192.715 226.604 192.595 226.404 192.502C226.217 192.395 226.01 192.308 225.784 192.242L224.004 191.742C223.084 191.475 222.384 191.068 221.904 190.522C221.437 189.975 221.204 189.328 221.204 188.582C221.204 187.915 221.37 187.335 221.704 186.842C222.05 186.335 222.524 185.942 223.124 185.662C223.737 185.382 224.437 185.242 225.224 185.242C226.25 185.242 227.157 185.488 227.944 185.982C228.73 186.475 229.29 187.168 229.624 188.062L227.624 189.002C227.437 188.508 227.124 188.115 226.684 187.822C226.244 187.528 225.75 187.382 225.204 187.382C224.764 187.382 224.417 187.482 224.164 187.682C223.91 187.882 223.784 188.142 223.784 188.462C223.784 188.662 223.837 188.835 223.944 188.982C224.05 189.128 224.197 189.248 224.384 189.342C224.584 189.435 224.81 189.522 225.064 189.602L226.804 190.122C227.697 190.388 228.384 190.788 228.864 191.322C229.357 191.855 229.604 192.508 229.604 193.282C229.604 193.935 229.43 194.515 229.084 195.022C228.737 195.515 228.257 195.902 227.644 196.182C227.03 196.462 226.31 196.602 225.484 196.602Z" fill="#FFBC05"/>
<path d="M228.302 126.362L224.562 115.482H227.322L230.062 123.742L229.102 123.722L232.022 115.482H234.342L237.242 123.722L236.282 123.742L239.022 115.482H241.782L238.042 126.362H235.702L232.742 117.742H233.622L230.622 126.362H228.302ZM243.219 126.362V115.482H245.839V126.362H243.219ZM243.219 114.262V111.462H245.839V114.262H243.219ZM248.258 126.362V111.222H250.878V126.362H248.258ZM253.297 126.362V111.222H255.917V126.362H253.297ZM267.17 130.762C266.357 130.762 265.604 130.628 264.91 130.362C264.217 130.095 263.617 129.722 263.11 129.242C262.617 128.775 262.257 128.222 262.03 127.582L264.47 126.662C264.63 127.168 264.944 127.575 265.41 127.882C265.89 128.202 266.477 128.362 267.17 128.362C267.704 128.362 268.17 128.262 268.57 128.062C268.984 127.862 269.304 127.568 269.53 127.182C269.757 126.808 269.87 126.355 269.87 125.822V123.342L270.37 123.942C269.997 124.595 269.497 125.088 268.87 125.422C268.244 125.755 267.53 125.922 266.73 125.922C265.717 125.922 264.81 125.688 264.01 125.222C263.21 124.755 262.584 124.115 262.13 123.302C261.677 122.488 261.45 121.575 261.45 120.562C261.45 119.535 261.677 118.622 262.13 117.822C262.584 117.022 263.204 116.395 263.99 115.942C264.777 115.475 265.67 115.242 266.67 115.242C267.484 115.242 268.197 115.415 268.81 115.762C269.437 116.095 269.957 116.582 270.37 117.222L270.01 117.882V115.482H272.49V125.822C272.49 126.768 272.257 127.615 271.79 128.362C271.337 129.108 270.71 129.695 269.91 130.122C269.124 130.548 268.21 130.762 267.17 130.762ZM267.05 123.502C267.61 123.502 268.097 123.382 268.51 123.142C268.937 122.888 269.27 122.542 269.51 122.102C269.75 121.662 269.87 121.155 269.87 120.582C269.87 120.022 269.744 119.522 269.49 119.082C269.25 118.628 268.917 118.275 268.49 118.022C268.077 117.768 267.597 117.642 267.05 117.642C266.504 117.642 266.01 117.768 265.57 118.022C265.13 118.275 264.784 118.628 264.53 119.082C264.29 119.522 264.17 120.022 264.17 120.582C264.17 121.142 264.29 121.642 264.53 122.082C264.784 122.522 265.124 122.868 265.55 123.122C265.99 123.375 266.49 123.502 267.05 123.502ZM280.097 126.602C278.977 126.602 277.997 126.348 277.157 125.842C276.317 125.335 275.664 124.648 275.197 123.782C274.731 122.915 274.497 121.955 274.497 120.902C274.497 119.808 274.731 118.842 275.197 118.002C275.677 117.148 276.324 116.475 277.137 115.982C277.964 115.488 278.884 115.242 279.897 115.242C280.751 115.242 281.497 115.382 282.137 115.662C282.791 115.942 283.344 116.328 283.797 116.822C284.251 117.315 284.597 117.882 284.837 118.522C285.077 119.148 285.197 119.828 285.197 120.562C285.197 120.748 285.184 120.942 285.157 121.142C285.144 121.342 285.111 121.515 285.057 121.662H276.657V119.662H283.577L282.337 120.602C282.457 119.988 282.424 119.442 282.237 118.962C282.064 118.482 281.771 118.102 281.357 117.822C280.957 117.542 280.471 117.402 279.897 117.402C279.351 117.402 278.864 117.542 278.437 117.822C278.011 118.088 277.684 118.488 277.457 119.022C277.244 119.542 277.164 120.175 277.217 120.922C277.164 121.588 277.251 122.182 277.477 122.702C277.717 123.208 278.064 123.602 278.517 123.882C278.984 124.162 279.517 124.302 280.117 124.302C280.717 124.302 281.224 124.175 281.637 123.922C282.064 123.668 282.397 123.328 282.637 122.902L284.757 123.942C284.544 124.462 284.211 124.922 283.757 125.322C283.304 125.722 282.764 126.035 282.137 126.262C281.524 126.488 280.844 126.602 280.097 126.602ZM292.143 126.482C290.917 126.482 289.963 126.148 289.283 125.482C288.617 124.802 288.283 123.848 288.283 122.622V117.822H286.403V115.482H286.603C287.137 115.482 287.55 115.342 287.843 115.062C288.137 114.782 288.283 114.375 288.283 113.842V113.002H290.903V115.482H293.403V117.822H290.903V122.482C290.903 122.842 290.963 123.148 291.083 123.402C291.217 123.655 291.417 123.848 291.683 123.982C291.963 124.115 292.317 124.182 292.743 124.182C292.837 124.182 292.943 124.175 293.063 124.162C293.197 124.148 293.323 124.135 293.443 124.122V126.362C293.257 126.388 293.043 126.415 292.803 126.442C292.563 126.468 292.343 126.482 292.143 126.482ZM71.242 161.362L76.382 146.462H79.902L85.042 161.362H82.082L81.022 158.162H75.262L74.182 161.362H71.242ZM76.042 155.762H80.242L77.762 148.342H78.522L76.042 155.762ZM86.4803 161.362V150.482H88.9403V153.002L88.6603 152.582C88.8603 151.795 89.2603 151.208 89.8603 150.822C90.4603 150.435 91.167 150.242 91.9803 150.242C92.8736 150.242 93.6603 150.475 94.3403 150.942C95.0203 151.408 95.4603 152.022 95.6603 152.782L94.9203 152.842C95.2536 151.975 95.7536 151.328 96.4203 150.902C97.087 150.462 97.8536 150.242 98.7203 150.242C99.4936 150.242 100.18 150.415 100.78 150.762C101.394 151.108 101.874 151.595 102.22 152.222C102.567 152.835 102.74 153.548 102.74 154.362V161.362H100.12V154.982C100.12 154.502 100.034 154.088 99.8603 153.742C99.687 153.395 99.447 153.128 99.1403 152.942C98.8336 152.742 98.4603 152.642 98.0203 152.642C97.607 152.642 97.2403 152.742 96.9203 152.942C96.6003 153.128 96.3536 153.395 96.1803 153.742C96.007 154.088 95.9203 154.502 95.9203 154.982V161.362H93.3003V154.982C93.3003 154.502 93.2136 154.088 93.0403 153.742C92.867 153.395 92.6203 153.128 92.3003 152.942C91.9936 152.742 91.627 152.642 91.2003 152.642C90.787 152.642 90.4203 152.742 90.1003 152.942C89.7803 153.128 89.5336 153.395 89.3603 153.742C89.187 154.088 89.1003 154.502 89.1003 154.982V161.362H86.4803ZM108.257 161.602C107.497 161.602 106.837 161.475 106.277 161.222C105.717 160.968 105.284 160.608 104.977 160.142C104.67 159.662 104.517 159.108 104.517 158.482C104.517 157.882 104.65 157.348 104.917 156.882C105.184 156.402 105.597 156.002 106.157 155.682C106.717 155.362 107.424 155.135 108.277 155.002L111.837 154.422V156.422L108.777 156.942C108.257 157.035 107.87 157.202 107.617 157.442C107.364 157.682 107.237 157.995 107.237 158.382C107.237 158.755 107.377 159.055 107.657 159.282C107.95 159.495 108.31 159.602 108.737 159.602C109.284 159.602 109.764 159.488 110.177 159.262C110.604 159.022 110.93 158.695 111.157 158.282C111.397 157.868 111.517 157.415 111.517 156.922V154.122C111.517 153.655 111.33 153.268 110.957 152.962C110.597 152.642 110.117 152.482 109.517 152.482C108.957 152.482 108.457 152.635 108.017 152.942C107.59 153.235 107.277 153.628 107.077 154.122L104.937 153.082C105.15 152.508 105.484 152.015 105.937 151.602C106.404 151.175 106.95 150.842 107.577 150.602C108.204 150.362 108.884 150.242 109.617 150.242C110.51 150.242 111.297 150.408 111.977 150.742C112.657 151.062 113.184 151.515 113.557 152.102C113.944 152.675 114.137 153.348 114.137 154.122V161.362H111.657V159.502L112.217 159.462C111.937 159.928 111.604 160.322 111.217 160.642C110.83 160.948 110.39 161.188 109.897 161.362C109.404 161.522 108.857 161.602 108.257 161.602ZM115.618 161.362V159.242L121.938 151.922L122.338 152.822H115.898V150.482H124.658V152.622L118.458 159.942L118.058 159.042H124.698V161.362H115.618ZM131.507 161.602C130.441 161.602 129.467 161.355 128.587 160.862C127.721 160.368 127.027 159.695 126.507 158.842C126.001 157.988 125.747 157.015 125.747 155.922C125.747 154.828 126.001 153.855 126.507 153.002C127.027 152.148 127.721 151.475 128.587 150.982C129.454 150.488 130.427 150.242 131.507 150.242C132.574 150.242 133.541 150.488 134.407 150.982C135.274 151.475 135.961 152.148 136.467 153.002C136.987 153.842 137.247 154.815 137.247 155.922C137.247 157.015 136.987 157.988 136.467 158.842C135.947 159.695 135.254 160.368 134.387 160.862C133.521 161.355 132.561 161.602 131.507 161.602ZM131.507 159.202C132.094 159.202 132.607 159.062 133.047 158.782C133.501 158.502 133.854 158.115 134.107 157.622C134.374 157.115 134.507 156.548 134.507 155.922C134.507 155.282 134.374 154.722 134.107 154.242C133.854 153.748 133.501 153.362 133.047 153.082C132.607 152.788 132.094 152.642 131.507 152.642C130.907 152.642 130.381 152.788 129.927 153.082C129.474 153.362 129.114 153.748 128.847 154.242C128.594 154.722 128.467 155.282 128.467 155.922C128.467 156.548 128.594 157.115 128.847 157.622C129.114 158.115 129.474 158.502 129.927 158.782C130.381 159.062 130.907 159.202 131.507 159.202ZM139.234 161.362V150.482H141.694V152.622L141.494 152.242C141.748 151.588 142.161 151.095 142.734 150.762C143.321 150.415 144.001 150.242 144.774 150.242C145.574 150.242 146.281 150.415 146.894 150.762C147.521 151.108 148.008 151.595 148.354 152.222C148.701 152.835 148.874 153.548 148.874 154.362V161.362H146.254V154.982C146.254 154.502 146.161 154.088 145.974 153.742C145.788 153.395 145.528 153.128 145.194 152.942C144.874 152.742 144.494 152.642 144.054 152.642C143.628 152.642 143.248 152.742 142.914 152.942C142.581 153.128 142.321 153.395 142.134 153.742C141.948 154.088 141.854 154.502 141.854 154.982V161.362H139.234ZM158.844 161.362L153.644 146.462H156.604L160.684 158.802H160.104L164.184 146.462H167.144L161.964 161.362H158.844ZM172.914 161.602C171.847 161.602 170.874 161.355 169.994 160.862C169.127 160.368 168.434 159.695 167.914 158.842C167.407 157.988 167.154 157.015 167.154 155.922C167.154 154.828 167.407 153.855 167.914 153.002C168.434 152.148 169.127 151.475 169.994 150.982C170.86 150.488 171.834 150.242 172.914 150.242C173.98 150.242 174.947 150.488 175.814 150.982C176.68 151.475 177.367 152.148 177.874 153.002C178.394 153.842 178.654 154.815 178.654 155.922C178.654 157.015 178.394 157.988 177.874 158.842C177.354 159.695 176.66 160.368 175.794 160.862C174.927 161.355 173.967 161.602 172.914 161.602ZM172.914 159.202C173.5 159.202 174.014 159.062 174.454 158.782C174.907 158.502 175.26 158.115 175.514 157.622C175.78 157.115 175.914 156.548 175.914 155.922C175.914 155.282 175.78 154.722 175.514 154.242C175.26 153.748 174.907 153.362 174.454 153.082C174.014 152.788 173.5 152.642 172.914 152.642C172.314 152.642 171.787 152.788 171.334 153.082C170.88 153.362 170.52 153.748 170.254 154.242C170 154.722 169.874 155.282 169.874 155.922C169.874 156.548 170 157.115 170.254 157.622C170.52 158.115 170.88 158.502 171.334 158.782C171.787 159.062 172.314 159.202 172.914 159.202ZM184.52 161.602C183.68 161.602 182.947 161.415 182.32 161.042C181.707 160.668 181.234 160.148 180.9 159.482C180.58 158.815 180.42 158.035 180.42 157.142V150.482H183.04V156.922C183.04 157.375 183.127 157.775 183.3 158.122C183.487 158.455 183.747 158.722 184.08 158.922C184.427 159.108 184.814 159.202 185.24 159.202C185.667 159.202 186.047 159.108 186.38 158.922C186.714 158.722 186.974 158.448 187.16 158.102C187.347 157.755 187.44 157.342 187.44 156.862V150.482H190.06V161.362H187.58V159.222L187.8 159.602C187.547 160.268 187.127 160.768 186.54 161.102C185.967 161.435 185.294 161.602 184.52 161.602ZM197.736 161.602C196.656 161.602 195.683 161.355 194.816 160.862C193.963 160.355 193.289 159.675 192.796 158.822C192.303 157.955 192.056 156.982 192.056 155.902C192.056 154.822 192.303 153.855 192.796 153.002C193.289 152.148 193.963 151.475 194.816 150.982C195.683 150.488 196.656 150.242 197.736 150.242C198.509 150.242 199.229 150.382 199.896 150.662C200.563 150.928 201.136 151.302 201.616 151.782C202.109 152.248 202.463 152.808 202.676 153.462L200.376 154.462C200.176 153.915 199.836 153.475 199.356 153.142C198.889 152.808 198.349 152.642 197.736 152.642C197.163 152.642 196.649 152.782 196.196 153.062C195.756 153.342 195.409 153.728 195.156 154.222C194.903 154.715 194.776 155.282 194.776 155.922C194.776 156.562 194.903 157.128 195.156 157.622C195.409 158.115 195.756 158.502 196.196 158.782C196.649 159.062 197.163 159.202 197.736 159.202C198.363 159.202 198.909 159.035 199.376 158.702C199.843 158.368 200.176 157.922 200.376 157.362L202.676 158.402C202.463 159.015 202.116 159.568 201.636 160.062C201.156 160.542 200.583 160.922 199.916 161.202C199.249 161.468 198.523 161.602 197.736 161.602ZM204.664 161.362V146.222H207.284V152.622L206.924 152.242C207.177 151.588 207.591 151.095 208.164 150.762C208.751 150.415 209.431 150.242 210.204 150.242C211.004 150.242 211.711 150.415 212.324 150.762C212.951 151.108 213.437 151.595 213.784 152.222C214.131 152.835 214.304 153.548 214.304 154.362V161.362H211.684V154.982C211.684 154.502 211.591 154.088 211.404 153.742C211.217 153.395 210.957 153.128 210.624 152.942C210.304 152.742 209.924 152.642 209.484 152.642C209.057 152.642 208.677 152.742 208.344 152.942C208.011 153.128 207.751 153.395 207.564 153.742C207.377 154.088 207.284 154.502 207.284 154.982V161.362H204.664ZM221.679 161.602C220.559 161.602 219.579 161.348 218.739 160.842C217.899 160.335 217.246 159.648 216.779 158.782C216.313 157.915 216.079 156.955 216.079 155.902C216.079 154.808 216.313 153.842 216.779 153.002C217.259 152.148 217.906 151.475 218.719 150.982C219.546 150.488 220.466 150.242 221.479 150.242C222.333 150.242 223.079 150.382 223.719 150.662C224.373 150.942 224.926 151.328 225.379 151.822C225.833 152.315 226.179 152.882 226.419 153.522C226.659 154.148 226.779 154.828 226.779 155.562C226.779 155.748 226.766 155.942 226.739 156.142C226.726 156.342 226.693 156.515 226.639 156.662H218.239V154.662H225.159L223.919 155.602C224.039 154.988 224.006 154.442 223.819 153.962C223.646 153.482 223.353 153.102 222.939 152.822C222.539 152.542 222.053 152.402 221.479 152.402C220.933 152.402 220.446 152.542 220.019 152.822C219.593 153.088 219.266 153.488 219.039 154.022C218.826 154.542 218.746 155.175 218.799 155.922C218.746 156.588 218.833 157.182 219.059 157.702C219.299 158.208 219.646 158.602 220.099 158.882C220.566 159.162 221.099 159.302 221.699 159.302C222.299 159.302 222.806 159.175 223.219 158.922C223.646 158.668 223.979 158.328 224.219 157.902L226.339 158.942C226.126 159.462 225.793 159.922 225.339 160.322C224.886 160.722 224.346 161.035 223.719 161.262C223.106 161.488 222.426 161.602 221.679 161.602ZM228.765 161.362V150.482H231.225V152.902L231.025 152.542C231.279 151.728 231.672 151.162 232.205 150.842C232.752 150.522 233.405 150.362 234.165 150.362H234.805V152.682H233.865C233.119 152.682 232.519 152.915 232.065 153.382C231.612 153.835 231.385 154.475 231.385 155.302V161.362H228.765ZM242.541 161.362L238.801 150.482H241.561L244.301 158.742L243.341 158.722L246.261 150.482H248.581L251.481 158.722L250.521 158.742L253.261 150.482H256.021L252.281 161.362H249.941L246.981 152.742H247.861L244.861 161.362H242.541ZM262.582 161.602C261.515 161.602 260.542 161.355 259.662 160.862C258.795 160.368 258.102 159.695 257.582 158.842C257.075 157.988 256.822 157.015 256.822 155.922C256.822 154.828 257.075 153.855 257.582 153.002C258.102 152.148 258.795 151.475 259.662 150.982C260.528 150.488 261.502 150.242 262.582 150.242C263.648 150.242 264.615 150.488 265.482 150.982C266.348 151.475 267.035 152.148 267.542 153.002C268.062 153.842 268.322 154.815 268.322 155.922C268.322 157.015 268.062 157.988 267.542 158.842C267.022 159.695 266.328 160.368 265.462 160.862C264.595 161.355 263.635 161.602 262.582 161.602ZM262.582 159.202C263.168 159.202 263.682 159.062 264.122 158.782C264.575 158.502 264.928 158.115 265.182 157.622C265.448 157.115 265.582 156.548 265.582 155.922C265.582 155.282 265.448 154.722 265.182 154.242C264.928 153.748 264.575 153.362 264.122 153.082C263.682 152.788 263.168 152.642 262.582 152.642C261.982 152.642 261.455 152.788 261.002 153.082C260.548 153.362 260.188 153.748 259.922 154.242C259.668 154.722 259.542 155.282 259.542 155.922C259.542 156.548 259.668 157.115 259.922 157.622C260.188 158.115 260.548 158.502 261.002 158.782C261.455 159.062 261.982 159.202 262.582 159.202ZM270.308 161.362V150.482H272.768V152.902L272.568 152.542C272.822 151.728 273.215 151.162 273.748 150.842C274.295 150.522 274.948 150.362 275.708 150.362H276.348V152.682H275.408C274.662 152.682 274.062 152.915 273.608 153.382C273.155 153.835 272.928 154.475 272.928 155.302V161.362H270.308ZM283.042 161.482C281.815 161.482 280.862 161.148 280.182 160.482C279.515 159.802 279.182 158.848 279.182 157.622V152.822H277.302V150.482H277.502C278.035 150.482 278.449 150.342 278.742 150.062C279.035 149.782 279.182 149.375 279.182 148.842V148.002H281.802V150.482H284.302V152.822H281.802V157.482C281.802 157.842 281.862 158.148 281.982 158.402C282.115 158.655 282.315 158.848 282.582 158.982C282.862 159.115 283.215 159.182 283.642 159.182C283.735 159.182 283.842 159.175 283.962 159.162C284.095 159.148 284.222 159.135 284.342 159.122V161.362C284.155 161.388 283.942 161.415 283.702 161.442C283.462 161.468 283.242 161.482 283.042 161.482ZM286.344 161.362V146.222H288.964V152.622L288.604 152.242C288.857 151.588 289.27 151.095 289.844 150.762C290.43 150.415 291.11 150.242 291.884 150.242C292.684 150.242 293.39 150.415 294.004 150.762C294.63 151.108 295.117 151.595 295.464 152.222C295.81 152.835 295.984 153.548 295.984 154.362V161.362H293.364V154.982C293.364 154.502 293.27 154.088 293.084 153.742C292.897 153.395 292.637 153.128 292.304 152.942C291.984 152.742 291.604 152.642 291.164 152.642C290.737 152.642 290.357 152.742 290.024 152.942C289.69 153.128 289.43 153.395 289.244 153.742C289.057 154.088 288.964 154.502 288.964 154.982V161.362H286.344Z" fill="white"/>
<path d="M343.577 48.0009C340.769 47.2883 337.934 46.9551 334.691 46.9822C333.931 46.9439 333.847 48.0821 334.431 47.9211C337.822 48.4727 341.186 49.4037 344.114 51.0743C346.134 52.128 348.098 53.9405 350.35 54.4347C351.666 54.6914 352.51 53.5914 351.833 52.415C350.305 49.8628 346.385 48.7135 343.577 48.0009Z" fill="#FFBB00"/>
<path d="M330.001 32.8688C330.128 35.7628 329.878 38.6069 329.192 41.777C329.075 42.5288 327.943 42.3793 328.22 41.8403C328.369 38.4075 328.141 34.9248 327.101 31.7182C326.48 29.5262 325.104 27.2345 325.078 24.9293C325.094 23.5888 326.343 22.9865 327.357 23.8879C329.545 25.9034 329.874 29.9748 330.001 32.8688Z" fill="#FFBB00"/>
<path d="M335.874 39.5021C334.668 40.6115 333.633 41.8515 332.643 43.3962C332.39 43.7442 332.903 44.1359 333.007 43.8096C334.318 42.3738 335.799 41.0686 337.496 40.1985C338.62 39.5677 340.086 39.198 341.017 38.2843C341.546 37.7405 341.286 37.0007 340.519 36.9571C338.838 36.8916 337.081 38.3926 335.874 39.5021Z" fill="#FFBB00"/>
<path d="M28.1965 43.7665C31.0931 43.7922 33.9201 44.1919 37.0497 45.0438C37.7943 45.2003 37.5853 46.3222 37.0617 46.0179C33.6415 45.6879 30.1516 45.7318 26.8947 46.602C24.673 47.1067 22.3121 48.3594 20.0087 48.2641C18.6709 48.1773 18.1352 46.8989 19.0887 45.9334C21.2167 43.8544 25.2998 43.7408 28.1965 43.7665Z" fill="white"/>
<path d="M45.1778 32.5886C44.3183 35.3549 43.8362 38.169 43.6924 41.4093C43.6142 42.1661 44.7464 42.3096 44.6163 41.7181C45.3458 38.3603 46.4527 35.0503 48.2753 32.2143C49.4339 30.2526 51.3474 28.3866 51.9595 26.164C52.2851 24.8635 51.2312 23.9633 50.0207 24.5766C47.3916 25.9687 46.0373 29.8224 45.1778 32.5886Z" fill="white"/>
<path d="M37.8096 37.5089C38.6935 38.8889 39.3787 40.3515 39.9434 42.0974C40.0996 42.4985 39.5036 42.7466 39.4857 42.4045C38.584 40.6823 37.4835 39.043 36.0639 37.7695C35.1375 36.8733 33.8138 36.1426 33.1464 35.0221C32.7736 34.3615 33.2134 33.7124 33.9657 33.8653C35.6087 34.2301 36.9257 36.129 37.8096 37.5089Z" fill="white"/>
<path d="M24.4682 259.972C27.2096 260.908 30.0092 261.468 33.2443 261.702C33.9986 261.801 34.1734 260.673 33.5785 260.787C30.2423 259.965 26.9643 258.766 24.18 256.866C22.2513 255.653 20.439 253.689 18.2343 253.015C16.9433 252.653 16.0142 253.682 16.5937 254.909C17.9123 257.576 21.7269 259.036 24.4682 259.972Z" fill="#FFBB00"/>
<path d="M36.783 276.147C36.8891 273.253 37.3671 270.438 38.3056 267.333C38.4826 266.593 39.5983 266.833 39.2796 267.348C38.8548 270.758 38.8018 274.248 39.5812 277.527C40.0241 279.762 41.2108 282.157 41.0515 284.457C40.9276 285.792 39.6348 286.292 38.6962 285.312C36.6771 283.127 36.6769 279.042 36.783 276.147Z" fill="#FFBB00"/>
<path d="M31.4637 269.063C32.7551 268.054 33.8864 266.902 34.9979 265.442C35.2782 265.115 34.7981 264.683 34.6679 265C33.2463 266.326 31.6646 267.508 29.903 268.239C28.732 268.777 27.2409 269.028 26.2398 269.864C25.6691 270.363 25.8689 271.122 26.6293 271.227C28.3004 271.427 30.1723 270.072 31.4637 269.063Z" fill="#FFBB00"/>
<path d="M333.912 278.936C333.352 276.094 332.438 273.389 331.022 270.471C330.731 269.768 329.667 270.18 330.063 270.639C331.019 273.939 331.62 277.377 331.366 280.739C331.28 283.015 330.485 285.567 331.004 287.813C331.336 289.112 332.692 289.402 333.465 288.287C335.115 285.812 334.473 281.778 333.912 278.936Z" fill="white"/>
<path d="M341.762 260.183C339.202 261.538 336.525 262.532 333.367 263.271C332.638 263.488 332.288 262.402 332.893 262.42C336.058 261.083 339.107 259.384 341.558 257.069C343.272 255.568 344.752 253.343 346.824 252.331C348.042 251.771 349.121 252.641 348.742 253.944C347.859 256.785 344.322 258.827 341.762 260.183Z" fill="white"/>
<path d="M338.287 268.333C336.768 267.719 335.204 267.315 333.384 267.083C332.961 267.003 332.827 267.635 333.166 267.589C335.025 268.158 336.84 268.936 338.353 270.096C339.405 270.841 340.368 272.007 341.592 272.456C342.31 272.701 342.867 272.149 342.578 271.438C341.916 269.89 339.807 268.947 338.287 268.333Z" fill="white"/>
<defs>
<linearGradient id="paint0_linear_124_177" x1="150.432" y1="-19.8708" x2="210.97" y2="148.511" gradientUnits="userSpaceOnUse">
<stop offset="0.282918"/>
<stop offset="1" stop-color="#666666"/>
</linearGradient>
<linearGradient id="paint1_linear_124_177" x1="149.611" y1="-5.62209" x2="215.991" y2="110.707" gradientUnits="userSpaceOnUse">
<stop stop-color="#FFBC05"/>
<stop offset="0.628862" stop-color="#353535"/>
</linearGradient>
<clipPath id="clip0_124_177">
<rect width="52.5781" height="52.5781" fill="white" transform="translate(147.896 52.4895) rotate(-33.2059)"/>
</clipPath>
</defs>
</svg>
