<svg width="314" height="302" viewBox="0 0 314 302" fill="none" xmlns="http://www.w3.org/2000/svg">
<path d="M32.2568 53.0168V30.6668H36.1568L44.5268 42.0368H42.6668L50.8568 30.6668H54.7568V53.0168H50.6468V35.3168L52.2368 35.7068L43.7468 47.0168H43.2668L34.9868 35.7068L36.3368 35.3168V53.0168H32.2568ZM66.4441 53.3768C64.7641 53.3768 63.2941 52.9968 62.0341 52.2368C60.7741 51.4768 59.7941 50.4468 59.0941 49.1468C58.3941 47.8468 58.0441 46.4068 58.0441 44.8268C58.0441 43.1868 58.3941 41.7368 59.0941 40.4768C59.8141 39.1968 60.7841 38.1868 62.0041 37.4468C63.2441 36.7068 64.6241 36.3368 66.1441 36.3368C67.4241 36.3368 68.5441 36.5468 69.5041 36.9668C70.4841 37.3868 71.3141 37.9668 71.9941 38.7068C72.6741 39.4468 73.1941 40.2968 73.5541 41.2568C73.9141 42.1968 74.0941 43.2168 74.0941 44.3168C74.0941 44.5968 74.0741 44.8868 74.0341 45.1868C74.0141 45.4868 73.9641 45.7468 73.8841 45.9668H61.2841V42.9668H71.6641L69.8041 44.3768C69.9841 43.4568 69.9341 42.6368 69.6541 41.9168C69.3941 41.1968 68.9541 40.6268 68.3341 40.2068C67.7341 39.7868 67.0041 39.5768 66.1441 39.5768C65.3241 39.5768 64.5941 39.7868 63.9541 40.2068C63.3141 40.6068 62.8241 41.2068 62.4841 42.0068C62.1641 42.7868 62.0441 43.7368 62.1241 44.8568C62.0441 45.8568 62.1741 46.7468 62.5141 47.5268C62.8741 48.2868 63.3941 48.8768 64.0741 49.2968C64.7741 49.7168 65.5741 49.9268 66.4741 49.9268C67.3741 49.9268 68.1341 49.7368 68.7541 49.3568C69.3941 48.9768 69.8941 48.4668 70.2541 47.8268L73.4341 49.3868C73.1141 50.1668 72.6141 50.8568 71.9341 51.4568C71.2541 52.0568 70.4441 52.5268 69.5041 52.8668C68.5841 53.2068 67.5641 53.3768 66.4441 53.3768ZM84.8133 53.3768C83.1333 53.3768 81.6633 52.9968 80.4033 52.2368C79.1433 51.4768 78.1633 50.4468 77.4633 49.1468C76.7633 47.8468 76.4133 46.4068 76.4133 44.8268C76.4133 43.1868 76.7633 41.7368 77.4633 40.4768C78.1833 39.1968 79.1533 38.1868 80.3733 37.4468C81.6133 36.7068 82.9933 36.3368 84.5133 36.3368C85.7933 36.3368 86.9133 36.5468 87.8733 36.9668C88.8533 37.3868 89.6833 37.9668 90.3633 38.7068C91.0433 39.4468 91.5633 40.2968 91.9233 41.2568C92.2833 42.1968 92.4633 43.2168 92.4633 44.3168C92.4633 44.5968 92.4433 44.8868 92.4033 45.1868C92.3833 45.4868 92.3333 45.7468 92.2533 45.9668H79.6533V42.9668H90.0333L88.1733 44.3768C88.3533 43.4568 88.3033 42.6368 88.0233 41.9168C87.7633 41.1968 87.3233 40.6268 86.7033 40.2068C86.1033 39.7868 85.3733 39.5768 84.5133 39.5768C83.6933 39.5768 82.9633 39.7868 82.3233 40.2068C81.6833 40.6068 81.1933 41.2068 80.8533 42.0068C80.5333 42.7868 80.4133 43.7368 80.4933 44.8568C80.4133 45.8568 80.5433 46.7468 80.8833 47.5268C81.2433 48.2868 81.7633 48.8768 82.4433 49.2968C83.1433 49.7168 83.9433 49.9268 84.8433 49.9268C85.7433 49.9268 86.5033 49.7368 87.1233 49.3568C87.7633 48.9768 88.2633 48.4668 88.6233 47.8268L91.8033 49.3868C91.4833 50.1668 90.9833 50.8568 90.3033 51.4568C89.6233 52.0568 88.8133 52.5268 87.8733 52.8668C86.9533 53.2068 85.9333 53.3768 84.8133 53.3768ZM102.882 53.1968C101.042 53.1968 99.6124 52.6968 98.5924 51.6968C97.5924 50.6768 97.0924 49.2468 97.0924 47.4068V40.2068H94.2724V36.6968H94.5724C95.3724 36.6968 95.9924 36.4868 96.4324 36.0668C96.8724 35.6468 97.0924 35.0368 97.0924 34.2368V32.9768H101.022V36.6968H104.772V40.2068H101.022V47.1968C101.022 47.7368 101.112 48.1968 101.292 48.5768C101.492 48.9568 101.792 49.2468 102.192 49.4468C102.612 49.6468 103.142 49.7468 103.782 49.7468C103.922 49.7468 104.082 49.7368 104.262 49.7168C104.462 49.6968 104.652 49.6768 104.832 49.6568V53.0168C104.552 53.0568 104.232 53.0968 103.872 53.1368C103.512 53.1768 103.182 53.1968 102.882 53.1968ZM124.507 53.3768C122.867 53.3768 121.337 53.0868 119.917 52.5068C118.497 51.9268 117.257 51.1168 116.197 50.0768C115.137 49.0368 114.307 47.8168 113.707 46.4168C113.127 44.9968 112.837 43.4668 112.837 41.8268C112.837 40.1668 113.127 38.6368 113.707 37.2368C114.287 35.8368 115.107 34.6168 116.167 33.5768C117.227 32.5368 118.467 31.7368 119.887 31.1768C121.307 30.5968 122.847 30.3068 124.507 30.3068C126.167 30.3068 127.707 30.5968 129.127 31.1768C130.547 31.7568 131.787 32.5668 132.847 33.6068C133.907 34.6268 134.727 35.8368 135.307 37.2368C135.907 38.6368 136.207 40.1668 136.207 41.8268C136.207 43.4668 135.907 44.9968 135.307 46.4168C134.707 47.8168 133.877 49.0368 132.817 50.0768C131.757 51.1168 130.517 51.9268 129.097 52.5068C127.697 53.0868 126.167 53.3768 124.507 53.3768ZM124.507 49.6568C125.607 49.6568 126.617 49.4668 127.537 49.0868C128.457 48.6868 129.257 48.1368 129.937 47.4368C130.637 46.7368 131.167 45.9068 131.527 44.9468C131.907 43.9868 132.097 42.9468 132.097 41.8268C132.097 40.7068 131.907 39.6768 131.527 38.7368C131.167 37.7768 130.637 36.9468 129.937 36.2468C129.257 35.5268 128.457 34.9768 127.537 34.5968C126.617 34.2168 125.607 34.0268 124.507 34.0268C123.427 34.0268 122.427 34.2168 121.507 34.5968C120.587 34.9768 119.777 35.5268 119.077 36.2468C118.397 36.9468 117.867 37.7768 117.487 38.7368C117.107 39.6768 116.917 40.7068 116.917 41.8268C116.917 42.9468 117.107 43.9868 117.487 44.9468C117.867 45.9068 118.397 46.7368 119.077 47.4368C119.777 48.1368 120.587 48.6868 121.507 49.0868C122.427 49.4668 123.427 49.6568 124.507 49.6568ZM145.325 53.3768C144.065 53.3768 142.965 53.0968 142.025 52.5368C141.105 51.9768 140.395 51.1968 139.895 50.1968C139.415 49.1968 139.175 48.0268 139.175 46.6868V36.6968H143.105V46.3568C143.105 47.0368 143.235 47.6368 143.495 48.1568C143.775 48.6568 144.165 49.0568 144.665 49.3568C145.185 49.6368 145.765 49.7768 146.405 49.7768C147.045 49.7768 147.615 49.6368 148.115 49.3568C148.615 49.0568 149.005 48.6468 149.285 48.1268C149.565 47.6068 149.705 46.9868 149.705 46.2668V36.6968H153.635V53.0168H149.915V49.8068L150.245 50.3768C149.865 51.3768 149.235 52.1268 148.355 52.6268C147.495 53.1268 146.485 53.3768 145.325 53.3768ZM157.288 53.0168V36.6968H160.978V40.3268L160.678 39.7868C161.058 38.5668 161.648 37.7168 162.448 37.2368C163.268 36.7568 164.248 36.5168 165.388 36.5168H166.348V39.9968H164.938C163.818 39.9968 162.918 40.3468 162.238 41.0468C161.558 41.7268 161.218 42.6868 161.218 43.9268V53.0168H157.288Z" fill="white"/>
<path d="M178.131 53.0168V34.2668H172.341V30.6668H187.941V34.2668H182.241V53.0168H178.131ZM195.731 53.3768C194.051 53.3768 192.581 52.9968 191.321 52.2368C190.061 51.4768 189.081 50.4468 188.381 49.1468C187.681 47.8468 187.331 46.4068 187.331 44.8268C187.331 43.1868 187.681 41.7368 188.381 40.4768C189.101 39.1968 190.071 38.1868 191.291 37.4468C192.531 36.7068 193.911 36.3368 195.431 36.3368C196.711 36.3368 197.831 36.5468 198.791 36.9668C199.771 37.3868 200.601 37.9668 201.281 38.7068C201.961 39.4468 202.481 40.2968 202.841 41.2568C203.201 42.1968 203.381 43.2168 203.381 44.3168C203.381 44.5968 203.361 44.8868 203.321 45.1868C203.301 45.4868 203.251 45.7468 203.171 45.9668H190.571V42.9668H200.951L199.091 44.3768C199.271 43.4568 199.221 42.6368 198.941 41.9168C198.681 41.1968 198.241 40.6268 197.621 40.2068C197.021 39.7868 196.291 39.5768 195.431 39.5768C194.611 39.5768 193.881 39.7868 193.241 40.2068C192.601 40.6068 192.111 41.2068 191.771 42.0068C191.451 42.7868 191.331 43.7368 191.411 44.8568C191.331 45.8568 191.461 46.7468 191.801 47.5268C192.161 48.2868 192.681 48.8768 193.361 49.2968C194.061 49.7168 194.861 49.9268 195.761 49.9268C196.661 49.9268 197.421 49.7368 198.041 49.3568C198.681 48.9768 199.181 48.4668 199.541 47.8268L202.721 49.3868C202.401 50.1668 201.901 50.8568 201.221 51.4568C200.541 52.0568 199.731 52.5268 198.791 52.8668C197.871 53.2068 196.851 53.3768 195.731 53.3768ZM214.22 53.3768C212.6 53.3768 211.14 53.0068 209.84 52.2668C208.56 51.5068 207.55 50.4868 206.81 49.2068C206.07 47.9068 205.7 46.4468 205.7 44.8268C205.7 43.2068 206.07 41.7568 206.81 40.4768C207.55 39.1968 208.56 38.1868 209.84 37.4468C211.14 36.7068 212.6 36.3368 214.22 36.3368C215.38 36.3368 216.46 36.5468 217.46 36.9668C218.46 37.3668 219.32 37.9268 220.04 38.6468C220.78 39.3468 221.31 40.1868 221.63 41.1668L218.18 42.6668C217.88 41.8468 217.37 41.1868 216.65 40.6868C215.95 40.1868 215.14 39.9368 214.22 39.9368C213.36 39.9368 212.59 40.1468 211.91 40.5668C211.25 40.9868 210.73 41.5668 210.35 42.3068C209.97 43.0468 209.78 43.8968 209.78 44.8568C209.78 45.8168 209.97 46.6668 210.35 47.4068C210.73 48.1468 211.25 48.7268 211.91 49.1468C212.59 49.5668 213.36 49.7768 214.22 49.7768C215.16 49.7768 215.98 49.5268 216.68 49.0268C217.38 48.5268 217.88 47.8568 218.18 47.0168L221.63 48.5768C221.31 49.4968 220.79 50.3268 220.07 51.0668C219.35 51.7868 218.49 52.3568 217.49 52.7768C216.49 53.1768 215.4 53.3768 214.22 53.3768ZM224.612 53.0168V30.3068H228.542V39.9068L228.002 39.3368C228.382 38.3568 229.002 37.6168 229.862 37.1168C230.742 36.5968 231.762 36.3368 232.922 36.3368C234.122 36.3368 235.182 36.5968 236.102 37.1168C237.042 37.6368 237.772 38.3668 238.292 39.3068C238.812 40.2268 239.072 41.2968 239.072 42.5168V53.0168H235.142V43.4468C235.142 42.7268 235.002 42.1068 234.722 41.5868C234.442 41.0668 234.052 40.6668 233.552 40.3868C233.072 40.0868 232.502 39.9368 231.842 39.9368C231.202 39.9368 230.632 40.0868 230.132 40.3868C229.632 40.6668 229.242 41.0668 228.962 41.5868C228.682 42.1068 228.542 42.7268 228.542 43.4468V53.0168H224.612ZM242.396 53.0168V36.6968H246.326V53.0168H242.396ZM242.396 34.8668V30.6668H246.326V34.8668H242.396ZM257.694 53.3768C256.014 53.3768 254.544 52.9968 253.284 52.2368C252.024 51.4768 251.044 50.4468 250.344 49.1468C249.644 47.8468 249.294 46.4068 249.294 44.8268C249.294 43.1868 249.644 41.7368 250.344 40.4768C251.064 39.1968 252.034 38.1868 253.254 37.4468C254.494 36.7068 255.874 36.3368 257.394 36.3368C258.674 36.3368 259.794 36.5468 260.754 36.9668C261.734 37.3868 262.564 37.9668 263.244 38.7068C263.924 39.4468 264.444 40.2968 264.804 41.2568C265.164 42.1968 265.344 43.2168 265.344 44.3168C265.344 44.5968 265.324 44.8868 265.284 45.1868C265.264 45.4868 265.214 45.7468 265.134 45.9668H252.534V42.9668H262.914L261.054 44.3768C261.234 43.4568 261.184 42.6368 260.904 41.9168C260.644 41.1968 260.204 40.6268 259.584 40.2068C258.984 39.7868 258.254 39.5768 257.394 39.5768C256.574 39.5768 255.844 39.7868 255.204 40.2068C254.564 40.6068 254.074 41.2068 253.734 42.0068C253.414 42.7868 253.294 43.7368 253.374 44.8568C253.294 45.8568 253.424 46.7468 253.764 47.5268C254.124 48.2868 254.644 48.8768 255.324 49.2968C256.024 49.7168 256.824 49.9268 257.724 49.9268C258.624 49.9268 259.384 49.7368 260.004 49.3568C260.644 48.9768 261.144 48.4668 261.504 47.8268L264.684 49.3868C264.364 50.1668 263.864 50.8568 263.184 51.4568C262.504 52.0568 261.694 52.5268 260.754 52.8668C259.834 53.2068 258.814 53.3768 257.694 53.3768ZM274.533 53.3768C272.793 53.3768 271.273 52.9668 269.973 52.1468C268.693 51.3068 267.813 50.1768 267.333 48.7568L270.273 47.3468C270.693 48.2668 271.273 48.9868 272.013 49.5068C272.773 50.0268 273.613 50.2868 274.533 50.2868C275.253 50.2868 275.823 50.1268 276.243 49.8068C276.663 49.4868 276.873 49.0668 276.873 48.5468C276.873 48.2268 276.783 47.9668 276.603 47.7668C276.443 47.5468 276.213 47.3668 275.913 47.2268C275.633 47.0668 275.323 46.9368 274.983 46.8368L272.313 46.0868C270.933 45.6868 269.883 45.0768 269.163 44.2568C268.463 43.4368 268.113 42.4668 268.113 41.3468C268.113 40.3468 268.363 39.4768 268.863 38.7368C269.383 37.9768 270.093 37.3868 270.993 36.9668C271.913 36.5468 272.963 36.3368 274.143 36.3368C275.683 36.3368 277.043 36.7068 278.223 37.4468C279.403 38.1868 280.243 39.2268 280.743 40.5668L277.743 41.9768C277.463 41.2368 276.993 40.6468 276.333 40.2068C275.673 39.7668 274.933 39.5468 274.113 39.5468C273.453 39.5468 272.933 39.6968 272.553 39.9968C272.173 40.2968 271.983 40.6868 271.983 41.1668C271.983 41.4668 272.063 41.7268 272.223 41.9468C272.383 42.1668 272.603 42.3468 272.883 42.4868C273.183 42.6268 273.523 42.7568 273.903 42.8768L276.513 43.6568C277.853 44.0568 278.883 44.6568 279.603 45.4568C280.343 46.2568 280.713 47.2368 280.713 48.3968C280.713 49.3768 280.453 50.2468 279.933 51.0068C279.413 51.7468 278.693 52.3268 277.773 52.7468C276.853 53.1668 275.773 53.3768 274.533 53.3768Z" fill="#FFBC05"/>
<path d="M9.60443 26.9998C12.4122 26.2872 15.2477 25.954 18.4911 25.9811C19.251 25.9428 19.3346 27.081 18.7507 26.92C15.3592 27.4716 11.9955 28.4026 9.06745 30.0732C7.04745 31.1269 5.08318 32.9394 2.83143 33.4336C1.51559 33.6903 0.67214 32.5904 1.34843 31.4139C2.87704 28.8617 6.79671 27.7124 9.60443 26.9998Z" fill="#FFBB00"/>
<path d="M23.1807 11.8677C23.0538 14.7617 23.304 17.6058 23.9899 20.7759C24.1069 21.5277 25.2383 21.3782 24.962 20.8392C24.8126 17.4064 25.0403 13.9237 26.0808 10.7171C26.7019 8.52512 28.0772 6.2334 28.1034 3.9282C28.0872 2.58766 26.8387 1.98543 25.8243 2.88675C23.6362 4.90227 23.3077 8.97374 23.1807 11.8677Z" fill="#FFBB00"/>
<path d="M17.3072 18.501C18.5133 19.6104 19.5483 20.8504 20.5388 22.3951C20.792 22.7431 20.2788 23.1348 20.1744 22.8085C18.864 21.3727 17.3824 20.0675 15.6853 19.1974C14.5613 18.5666 13.0952 18.1969 12.1645 17.2832C11.6359 16.7394 11.8959 15.9996 12.6624 15.956C14.3441 15.8905 16.1011 17.3915 17.3072 18.501Z" fill="#FFBB00"/>
<path d="M303.329 35.8412C300.434 35.1065 297.51 34.7629 294.166 34.7908C293.383 34.7514 293.297 35.925 293.899 35.759C297.396 36.3277 300.864 37.2876 303.883 39.0102C305.966 40.0967 307.991 41.9655 310.313 42.4751C311.67 42.7397 312.539 41.6056 311.842 40.3926C310.266 37.761 306.224 36.5759 303.329 35.8412Z" fill="white"/>
<path d="M289.332 20.2379C289.463 23.2218 289.205 26.1543 288.498 29.423C288.377 30.1982 287.21 30.044 287.495 29.4883C287.649 25.9487 287.415 22.3577 286.342 19.0515C285.701 16.7914 284.283 14.4284 284.256 12.0515C284.273 10.6693 285.56 10.0483 286.606 10.9777C288.862 13.0559 289.201 17.2539 289.332 20.2379Z" fill="white"/>
<path d="M295.387 27.0782C294.143 28.2221 293.076 29.5007 292.055 31.0933C291.793 31.4522 292.323 31.8561 292.43 31.5196C293.781 30.0392 295.309 28.6934 297.059 27.7963C298.218 27.1459 299.73 26.7647 300.689 25.8226C301.234 25.2618 300.966 24.4991 300.176 24.4541C298.442 24.3866 296.63 25.9342 295.387 27.0782Z" fill="white"/>
<g filter="url(#filter0_b_124_176)">
<rect x="39" y="104" width="235.664" height="197.031" rx="20" fill="url(#paint0_linear_124_176)" fill-opacity="0.27"/>
<rect x="39.5" y="104.5" width="234.664" height="196.031" rx="19.5" stroke="url(#paint1_linear_124_176)"/>
</g>
<defs>
<filter id="filter0_b_124_176" x="-161" y="-96" width="635.664" height="597.031" filterUnits="userSpaceOnUse" color-interpolation-filters="sRGB">
<feFlood flood-opacity="0" result="BackgroundImageFix"/>
<feGaussianBlur in="BackgroundImageFix" stdDeviation="100"/>
<feComposite in2="SourceAlpha" operator="in" result="effect1_backgroundBlur_124_176"/>
<feBlend mode="normal" in="SourceGraphic" in2="effect1_backgroundBlur_124_176" result="shape"/>
</filter>
<linearGradient id="paint0_linear_124_176" x1="151.681" y1="92.2409" x2="230.889" y2="365.156" gradientUnits="userSpaceOnUse">
<stop stop-color="#2A2929"/>
<stop offset="0.724676" stop-color="#7F7F7F"/>
</linearGradient>
<linearGradient id="paint1_linear_124_176" x1="26.1243" y1="65.8482" x2="166.39" y2="379.211" gradientUnits="userSpaceOnUse">
<stop offset="0.379155" stop-color="#FFBC05"/>
<stop offset="0.670449" stop-color="#070707"/>
</linearGradient>
</defs>
</svg>
