<svg width="220" height="52" viewBox="0 0 220 52" fill="none" xmlns="http://www.w3.org/2000/svg">
<path d="M27.1806 44.9907V26.2407H21.3906V22.6407H36.9906V26.2407H31.2906V44.9907H27.1806ZM44.781 45.3507C43.101 45.3507 41.631 44.9707 40.371 44.2107C39.111 43.4507 38.131 42.4207 37.431 41.1207C36.731 39.8207 36.381 38.3807 36.381 36.8007C36.381 35.1607 36.731 33.7107 37.431 32.4507C38.151 31.1707 39.121 30.1607 40.341 29.4207C41.581 28.6807 42.961 28.3107 44.481 28.3107C45.761 28.3107 46.881 28.5207 47.841 28.9407C48.821 29.3607 49.651 29.9407 50.331 30.6807C51.011 31.4207 51.531 32.2707 51.891 33.2307C52.251 34.1707 52.431 35.1907 52.431 36.2907C52.431 36.5707 52.411 36.8607 52.371 37.1607C52.351 37.4607 52.301 37.7207 52.221 37.9407H39.621V34.9407H50.001L48.141 36.3507C48.321 35.4307 48.271 34.6107 47.991 33.8907C47.731 33.1707 47.291 32.6007 46.671 32.1807C46.071 31.7607 45.341 31.5507 44.481 31.5507C43.661 31.5507 42.931 31.7607 42.291 32.1807C41.651 32.5807 41.161 33.1807 40.821 33.9807C40.501 34.7607 40.381 35.7107 40.461 36.8307C40.381 37.8307 40.511 38.7207 40.851 39.5007C41.211 40.2607 41.731 40.8507 42.411 41.2707C43.111 41.6907 43.911 41.9007 44.811 41.9007C45.711 41.9007 46.471 41.7107 47.091 41.3307C47.731 40.9507 48.231 40.4407 48.591 39.8007L51.771 41.3607C51.451 42.1407 50.951 42.8307 50.271 43.4307C49.591 44.0307 48.781 44.5007 47.841 44.8407C46.921 45.1807 45.901 45.3507 44.781 45.3507ZM61.6201 45.3507C59.8801 45.3507 58.3601 44.9407 57.0601 44.1207C55.7801 43.2807 54.9001 42.1507 54.4201 40.7307L57.3601 39.3207C57.7801 40.2407 58.3601 40.9607 59.1001 41.4807C59.8601 42.0007 60.7001 42.2607 61.6201 42.2607C62.3401 42.2607 62.9101 42.1007 63.3301 41.7807C63.7501 41.4607 63.9601 41.0407 63.9601 40.5207C63.9601 40.2007 63.8701 39.9407 63.6901 39.7407C63.5301 39.5207 63.3001 39.3407 63.0001 39.2007C62.7201 39.0407 62.4101 38.9107 62.0701 38.8107L59.4001 38.0607C58.0201 37.6607 56.9701 37.0507 56.2501 36.2307C55.5501 35.4107 55.2001 34.4407 55.2001 33.3207C55.2001 32.3207 55.4501 31.4507 55.9501 30.7107C56.4701 29.9507 57.1801 29.3607 58.0801 28.9407C59.0001 28.5207 60.0501 28.3107 61.2301 28.3107C62.7701 28.3107 64.1301 28.6807 65.3101 29.4207C66.4901 30.1607 67.3301 31.2007 67.8301 32.5407L64.8301 33.9507C64.5501 33.2107 64.0801 32.6207 63.4201 32.1807C62.7601 31.7407 62.0201 31.5207 61.2001 31.5207C60.5401 31.5207 60.0201 31.6707 59.6401 31.9707C59.2601 32.2707 59.0701 32.6607 59.0701 33.1407C59.0701 33.4407 59.1501 33.7007 59.3101 33.9207C59.4701 34.1407 59.6901 34.3207 59.9701 34.4607C60.2701 34.6007 60.6101 34.7307 60.9901 34.8507L63.6001 35.6307C64.9401 36.0307 65.9701 36.6307 66.6901 37.4307C67.4301 38.2307 67.8001 39.2107 67.8001 40.3707C67.8001 41.3507 67.5401 42.2207 67.0201 42.9807C66.5001 43.7207 65.7801 44.3007 64.8601 44.7207C63.9401 45.1407 62.8601 45.3507 61.6201 45.3507ZM78.2603 45.1707C76.4203 45.1707 74.9903 44.6707 73.9703 43.6707C72.9703 42.6507 72.4703 41.2207 72.4703 39.3807V32.1807H69.6503V28.6707H69.9503C70.7503 28.6707 71.3703 28.4607 71.8103 28.0407C72.2503 27.6207 72.4703 27.0107 72.4703 26.2107V24.9507H76.4003V28.6707H80.1503V32.1807H76.4003V39.1707C76.4003 39.7107 76.4903 40.1707 76.6703 40.5507C76.8703 40.9307 77.1703 41.2207 77.5703 41.4207C77.9903 41.6207 78.5203 41.7207 79.1603 41.7207C79.3003 41.7207 79.4603 41.7107 79.6403 41.6907C79.8403 41.6707 80.0303 41.6507 80.2103 41.6307V44.9907C79.9303 45.0307 79.6103 45.0707 79.2503 45.1107C78.8903 45.1507 78.5603 45.1707 78.2603 45.1707ZM83.2129 44.9907V28.6707H87.1429V44.9907H83.2129ZM83.2129 26.8407V22.6407H87.1429V26.8407H83.2129ZM90.7715 44.9907V28.6707H94.4615V32.4507L94.0415 31.8207C94.3415 30.6407 94.9415 29.7607 95.8415 29.1807C96.7415 28.6007 97.8015 28.3107 99.0215 28.3107C100.361 28.3107 101.541 28.6607 102.561 29.3607C103.581 30.0607 104.241 30.9807 104.541 32.1207L103.431 32.2107C103.931 30.9107 104.681 29.9407 105.681 29.3007C106.681 28.6407 107.831 28.3107 109.131 28.3107C110.291 28.3107 111.321 28.5707 112.221 29.0907C113.141 29.6107 113.861 30.3407 114.381 31.2807C114.901 32.2007 115.161 33.2707 115.161 34.4907V44.9907H111.231V35.4207C111.231 34.7007 111.101 34.0807 110.841 33.5607C110.581 33.0407 110.221 32.6407 109.761 32.3607C109.301 32.0607 108.741 31.9107 108.081 31.9107C107.461 31.9107 106.911 32.0607 106.431 32.3607C105.951 32.6407 105.581 33.0407 105.321 33.5607C105.061 34.0807 104.931 34.7007 104.931 35.4207V44.9907H101.001V35.4207C101.001 34.7007 100.871 34.0807 100.611 33.5607C100.351 33.0407 99.9815 32.6407 99.5015 32.3607C99.0415 32.0607 98.4915 31.9107 97.8515 31.9107C97.2315 31.9107 96.6815 32.0607 96.2015 32.3607C95.7215 32.6407 95.3515 33.0407 95.0915 33.5607C94.8315 34.0807 94.7015 34.7007 94.7015 35.4207V44.9907H90.7715ZM126.466 45.3507C124.866 45.3507 123.406 44.9807 122.086 44.2407C120.786 43.5007 119.746 42.4907 118.966 41.2107C118.206 39.9307 117.826 38.4707 117.826 36.8307C117.826 35.1907 118.206 33.7307 118.966 32.4507C119.746 31.1707 120.786 30.1607 122.086 29.4207C123.386 28.6807 124.846 28.3107 126.466 28.3107C128.066 28.3107 129.516 28.6807 130.816 29.4207C132.116 30.1607 133.146 31.1707 133.906 32.4507C134.686 33.7107 135.076 35.1707 135.076 36.8307C135.076 38.4707 134.686 39.9307 133.906 41.2107C133.126 42.4907 132.086 43.5007 130.786 44.2407C129.486 44.9807 128.046 45.3507 126.466 45.3507ZM126.466 41.7507C127.346 41.7507 128.116 41.5407 128.776 41.1207C129.456 40.7007 129.986 40.1207 130.366 39.3807C130.766 38.6207 130.966 37.7707 130.966 36.8307C130.966 35.8707 130.766 35.0307 130.366 34.3107C129.986 33.5707 129.456 32.9907 128.776 32.5707C128.116 32.1307 127.346 31.9107 126.466 31.9107C125.566 31.9107 124.776 32.1307 124.096 32.5707C123.416 32.9907 122.876 33.5707 122.476 34.3107C122.096 35.0307 121.906 35.8707 121.906 36.8307C121.906 37.7707 122.096 38.6207 122.476 39.3807C122.876 40.1207 123.416 40.7007 124.096 41.1207C124.776 41.5407 125.566 41.7507 126.466 41.7507ZM138.057 44.9907V28.6707H141.747V31.8807L141.447 31.3107C141.827 30.3307 142.447 29.5907 143.307 29.0907C144.187 28.5707 145.207 28.3107 146.367 28.3107C147.567 28.3107 148.627 28.5707 149.547 29.0907C150.487 29.6107 151.217 30.3407 151.737 31.2807C152.257 32.2007 152.517 33.2707 152.517 34.4907V44.9907H148.587V35.4207C148.587 34.7007 148.447 34.0807 148.167 33.5607C147.887 33.0407 147.497 32.6407 146.997 32.3607C146.517 32.0607 145.947 31.9107 145.287 31.9107C144.647 31.9107 144.077 32.0607 143.577 32.3607C143.077 32.6407 142.687 33.0407 142.407 33.5607C142.127 34.0807 141.987 34.7007 141.987 35.4207V44.9907H138.057ZM155.84 44.9907V28.6707H159.77V44.9907H155.84ZM155.84 26.8407V22.6407H159.77V26.8407H155.84ZM168.348 45.3507C167.208 45.3507 166.218 45.1607 165.378 44.7807C164.538 44.4007 163.888 43.8607 163.428 43.1607C162.968 42.4407 162.738 41.6107 162.738 40.6707C162.738 39.7707 162.938 38.9707 163.338 38.2707C163.738 37.5507 164.358 36.9507 165.198 36.4707C166.038 35.9907 167.098 35.6507 168.378 35.4507L173.718 34.5807V37.5807L169.128 38.3607C168.348 38.5007 167.768 38.7507 167.388 39.1107C167.008 39.4707 166.818 39.9407 166.818 40.5207C166.818 41.0807 167.028 41.5307 167.448 41.8707C167.888 42.1907 168.428 42.3507 169.068 42.3507C169.888 42.3507 170.608 42.1807 171.228 41.8407C171.868 41.4807 172.358 40.9907 172.698 40.3707C173.058 39.7507 173.238 39.0707 173.238 38.3307V34.1307C173.238 33.4307 172.958 32.8507 172.398 32.3907C171.858 31.9107 171.138 31.6707 170.238 31.6707C169.398 31.6707 168.648 31.9007 167.988 32.3607C167.348 32.8007 166.878 33.3907 166.578 34.1307L163.368 32.5707C163.688 31.7107 164.188 30.9707 164.868 30.3507C165.568 29.7107 166.388 29.2107 167.328 28.8507C168.268 28.4907 169.288 28.3107 170.388 28.3107C171.728 28.3107 172.908 28.5607 173.928 29.0607C174.948 29.5407 175.738 30.2207 176.298 31.1007C176.878 31.9607 177.168 32.9707 177.168 34.1307V44.9907H173.448V42.2007L174.288 42.1407C173.868 42.8407 173.368 43.4307 172.788 43.9107C172.208 44.3707 171.548 44.7307 170.808 44.9907C170.068 45.2307 169.248 45.3507 168.348 45.3507ZM180.801 44.9907V22.2807H184.731V44.9907H180.801ZM194.569 45.3507C192.829 45.3507 191.309 44.9407 190.009 44.1207C188.729 43.2807 187.849 42.1507 187.369 40.7307L190.309 39.3207C190.729 40.2407 191.309 40.9607 192.049 41.4807C192.809 42.0007 193.649 42.2607 194.569 42.2607C195.289 42.2607 195.859 42.1007 196.279 41.7807C196.699 41.4607 196.909 41.0407 196.909 40.5207C196.909 40.2007 196.819 39.9407 196.639 39.7407C196.479 39.5207 196.249 39.3407 195.949 39.2007C195.669 39.0407 195.359 38.9107 195.019 38.8107L192.349 38.0607C190.969 37.6607 189.919 37.0507 189.199 36.2307C188.499 35.4107 188.149 34.4407 188.149 33.3207C188.149 32.3207 188.399 31.4507 188.899 30.7107C189.419 29.9507 190.129 29.3607 191.029 28.9407C191.949 28.5207 192.999 28.3107 194.179 28.3107C195.719 28.3107 197.079 28.6807 198.259 29.4207C199.439 30.1607 200.279 31.2007 200.779 32.5407L197.779 33.9507C197.499 33.2107 197.029 32.6207 196.369 32.1807C195.709 31.7407 194.969 31.5207 194.149 31.5207C193.489 31.5207 192.969 31.6707 192.589 31.9707C192.209 32.2707 192.019 32.6607 192.019 33.1407C192.019 33.4407 192.099 33.7007 192.259 33.9207C192.419 34.1407 192.639 34.3207 192.919 34.4607C193.219 34.6007 193.559 34.7307 193.939 34.8507L196.549 35.6307C197.889 36.0307 198.919 36.6307 199.639 37.4307C200.379 38.2307 200.749 39.2107 200.749 40.3707C200.749 41.3507 200.489 42.2207 199.969 42.9807C199.449 43.7207 198.729 44.3007 197.809 44.7207C196.889 45.1407 195.809 45.3507 194.569 45.3507Z" fill="white"/>
<path d="M7.68721 21.6162C9.93518 21.0457 12.2054 20.7789 14.8022 20.8006C15.4106 20.77 15.4775 21.6812 15.0101 21.5523C12.2947 21.994 9.60158 22.7393 7.25729 24.0769C5.64001 24.9205 4.06734 26.3717 2.26451 26.7673C1.211 26.9728 0.535712 26.0922 1.07717 25.1503C2.30103 23.1069 5.43925 22.1867 7.68721 21.6162Z" fill="#FFBB00"/>
<path d="M18.5573 9.50173C18.4557 11.8187 18.6561 14.0958 19.2052 16.634C19.2988 17.2359 20.2047 17.1161 19.9835 16.6847C19.8638 13.9362 20.0462 11.1478 20.8793 8.58055C21.3765 6.82554 22.4777 4.99072 22.4986 3.1451C22.4856 2.07181 21.4861 1.58964 20.6739 2.31127C18.922 3.92497 18.659 7.18473 18.5573 9.50173Z" fill="#FFBB00"/>
<path d="M13.8567 14.8129C14.8223 15.7012 15.651 16.694 16.4441 17.9307C16.6468 18.2094 16.2359 18.523 16.1523 18.2617C15.1031 17.1121 13.9169 16.0671 12.5582 15.3705C11.6583 14.8655 10.4844 14.5695 9.73929 13.838C9.31605 13.4026 9.52426 12.8103 10.1379 12.7754C11.4844 12.7229 12.891 13.9247 13.8567 14.8129Z" fill="#FFBB00"/>
<path d="M211.449 23.6309C209.094 23.0334 206.716 22.754 203.996 22.7767C203.359 22.7446 203.289 23.6991 203.779 23.564C206.623 24.0266 209.444 24.8073 211.899 26.2083C213.593 27.0919 215.24 28.6119 217.129 29.0263C218.232 29.2416 218.939 28.3192 218.372 27.3326C217.09 25.1924 213.803 24.2285 211.449 23.6309Z" fill="white"/>
<path d="M200.062 10.9408C200.168 13.3676 199.958 15.7527 199.383 18.4112C199.285 19.0416 198.336 18.9162 198.568 18.4643C198.693 15.5855 198.502 12.6649 197.63 9.97592C197.109 8.1377 195.956 6.21587 195.934 4.28274C195.947 3.15857 196.994 2.65354 197.845 3.40938C199.68 5.09959 199.955 8.51392 200.062 10.9408Z" fill="white"/>
<path d="M204.987 16.5036C203.976 17.434 203.108 18.4738 202.277 19.7691C202.065 20.061 202.495 20.3895 202.583 20.1158C203.682 18.9118 204.924 17.8172 206.348 17.0876C207.29 16.5586 208.52 16.2486 209.3 15.4824C209.743 15.0263 209.525 14.4059 208.883 14.3694C207.472 14.3145 205.999 15.5732 204.987 16.5036Z" fill="white"/>
</svg>
